<svg id="Layer_1" data-name="Layer 1" xmlns="http://www.w3.org/2000/svg" viewBox="0 0 120.54 28.8"><defs><style>.cls-1{fill:#ff4338;}</style></defs><title>plated-logo-large</title><g id="Page-1"><g id="Nav-Closed---Desktop-1024-Copy-6"><path id="Fill-3" class="cls-1" d="M110.61,24.17V0l-9,3V3.09c1.77,0.87,2.26,1.58,2.26,4.11v6.23A5.78,5.78,0,0,0,98,9.2c-4.68,0-8.45,3.89-8.45,9.92,0,5.81,3.58,9.51,8,9.51a6.22,6.22,0,0,0,5.38-2.92l-0.13-.17c-0.65,1-6.08,1.82-6.08-6.42,0-5.28,1.13-8.07,3.55-8.07,1.92,0,3.64,2.19,3.64,5.58V28.26h8.51V28.18c-1.61-1-1.8-1.65-1.8-4h0ZM33,20.86V0L24,3V3.08c1.77,0.87,2.23,1.59,2.23,4.11V20.86c0,4.09.25,5.89-2.1,7.32v0.08h11V28.18C32.76,26.76,33,25,33,20.86h0ZM11.23,16.34H9.16V2.88h2.13c3.32,0,5.4,2.54,5.4,6.73s-2.2,6.74-5.45,6.74h0Zm2.64-14.5H0V1.92C2.34,3.35,2.1,5.15,2.1,9.24V20.86c0,4.09.25,5.89-2.1,7.32v0.08H12.07V28.18c-2.63-1.34-2.91-1.66-2.91-7.32V17.36h4.62c3.63,0,10.44-1.17,10.44-7.73,0-4.8-3.91-7.78-10.34-7.78h0Zm102.9,19.33A3.81,3.81,0,1,0,120.54,25a3.74,3.74,0,0,0-3.77-3.81h0ZM54,23.4c0-2.72.08-5.29,0.08-7.6,0-4.72-3.21-6.6-9.39-6.6-4.72,0-8,1.89-8,4.79,0,2,1.62,3.17,3.58,3.17a2.91,2.91,0,0,0,3.19-2.82c0-1.65-1.31-1.67-1.31-2.8s1.19-1.66,2.31-1.66c2.15,0,2.87,1.89,2.87,3.81v3.66l-2.87.53c-4.53.83-8.72,1.66-8.72,5.92,0,3.21,2.64,4.72,5.58,4.72a6.31,6.31,0,0,0,5-2.11l-0.09-.14c-0.46.53-3.94,0.56-3.94-3.48,0-2.45,1-3.89,3.43-4.38l1.58-.36s0,4.74,0,6c0,3,2.08,4.51,5.13,4.51a5.79,5.79,0,0,0,4.76-2l-0.05,0C57.12,26.6,54,27.88,54,23.4h0Zm22.22-6.12c0.08-4.45,1.06-7.43,3-7.43,2.15,0,2.45,3.21,2.45,7.43H76.25Zm3-8.07c-5.4,0-9.89,3.81-9.89,9.73,0,6.15,4.45,9.69,9.85,9.69,4.3,0,7.7-2.3,8.79-6.34l-0.26-.11a5.79,5.79,0,0,1-5.47,3.36c-3.62,0-6.07-2.79-6.07-7.47h12c0-5-2.87-8.87-8.94-8.87h0ZM64.64,22.41V10.53h5.47l0.19-.94H64.64V3H64.26a11,11,0,0,1-8.34,7.09v0.41h2V22.26c0,4.09,2.49,6.38,6,6.38A6.76,6.76,0,0,0,70,25.34l-0.12-.1c-0.56.89-5.27,2.88-5.27-2.83h0Z"/></g></g></svg>