<?xml version="1.0" encoding="utf-8"?>
<!-- Generator: Adobe Illustrator 22.0.1, SVG Export Plug-In . SVG Version: 6.00 Build 0)  -->
<svg version="1.1" id="Layer_1" xmlns="http://www.w3.org/2000/svg" xmlns:xlink="http://www.w3.org/1999/xlink" x="0px" y="0px"
	 viewBox="0 0 547 734.2" style="enable-background:new 0 0 547 734.2;" xml:space="preserve">
<style type="text/css">
	.st0{fill:#D22031;}
</style>
<title>newlogo</title>
<g id="About-Us">
	<g id="Group-12">
		<path id="Fill-3" class="st0" d="M482.1,468.6c0,0-42.4-4.2-56.1-4.4c-16-0.2-51.1,2.5-72.3,5.4s-71.2,11.5-94.6,15.3
			s-94.2,17.2-143.8,16.6s-76.7-7.1-88.2-9.8S0,483.4,0,483.4v-28.5c0,0,22.5,11.1,39.4,15.3s45.3,11.1,84.2,10.9
			s86.6-5.9,109.1-8.8s75.1-9.4,92.6-11.1s52.9-3.2,65.4-3.4s40.1,1.2,56.1,3.4C460.5,463.2,482.2,468.6,482.1,468.6 M480.7,578.5
			c12.5,7,17,11.7,17,22.3c0,13.4-11.2,21.6-24.8,21.6c-7.8,0-13.6-2.5-16.2-4.5c-1.4-1.1-2.1-2.1-2.1-3.4c0.2-2.1,0.8-4.1,1.8-5.8
			c4.9,3.5,10.7,5.5,16.7,5.7c7.6,0,13.9-3.8,13.9-11.5c0-7.2-3.9-10.5-14.9-16.3c-14.4-7.9-16.3-14.9-16.3-22.6
			c0-7.4,5.1-19.7,23.1-19.7h0.1c4.9,0,12.3,2,15.6,5.3c-0.1,2.6-1.9,6.3-5,5.7c-3.5-1.9-7.5-2.9-11.5-3c-6.1,0-12.1,3.1-12.1,10.4
			C466.1,569.8,470.6,573,480.7,578.5 M452.2,547.5c-2.9,3.6-4.9,7.9-5.5,12.5c-0.1,1.5-0.2,2.9-0.1,4.4c-1.8,0.9-3.8,1.1-5.7,0.6
			c-2.2-0.6-2.7-4-2-6.8v-0.1c1.4-5.8,6.3-11.9,10.2-14.1c1.8-1,3.9-1.1,7-0.2C455.1,544.9,453.3,546.2,452.2,547.5 M428.7,574.8
			v45.2c-1.2,0.5-6.8,1.2-8.8,1.2c-1.5,0-2.5-0.5-4-2.3c-4.4-6-12.9-16.7-22.2-30.2c-3.8-6.2-6.8-11.1-11.4-19.2
			c0.6,10.3,0.6,16.4,0.6,22.9v25.6c0,2.2-0.6,2.6-2.5,2.8c-2.5,0.3-5.1,0.4-7.6,0.4c0.3-4.3,0.3-10.1,0.3-18.8v-41.3l-2.2-3.6v-0.7
			c2.2-0.4,10.6-0.8,11.8-0.8c1.3,0,2,0.5,3,1.7c3,3.8,13.3,19.1,22.6,31.3c4.2,5.7,8.4,12.5,11.2,17.2c-0.5-8.1-0.5-13.2-0.5-20
			V559c0-2.3,0.5-2.5,2.1-2.7c2.6-0.3,5.3-0.4,7.9-0.4C428.8,560.2,428.6,566,428.7,574.8 M382.6,687.7c-0.6,0.4-2.5,0.7-5.6,0.7
			c-6.4,0-11.3,0-14.3-0.6l-0.3-0.6l1-2.5c8.6-9.2,12.2-14.8,12.2-19.9c0-3.2-1.5-5.5-5-5.5c-2.4,0-5,1.8-5.8,2.5
			c-1.1,0.8-1.9,0.7-2.5-0.8c-0.3-0.6-0.4-1.3-0.4-2c2.7-3.3,6.7-5.3,11-5.3c5.9,0,9.8,3.9,9.8,10.1c-0.1,2.9-1,5.8-2.6,8.2
			c-1.6,2.8-5,6.7-9.2,11c4.8,0.2,9.7,0.2,14.5,0C385.1,684.9,384.1,686.6,382.6,687.7 M353.5,617.9c-2-4.9-3.4-8.5-6.1-14.9h-25.1
			c-3,6.9-6,13.8-7.2,16.4c-0.5,1.5-1.3,1.8-2.7,1.8c-3,0-5.9-0.4-8.8-1v-0.4c5.9-13.3,22.6-50.7,26.2-59.5l-0.9-2.8
			c3.4-0.7,6.8-1.1,10.3-1.3c1.2,0,1.7,0.5,2.5,2.4c4.9,11.5,12.8,31.6,16.4,40.3c4.3,10.5,7.5,17.3,9,20.8v0.4
			c-1.6,1-8.3,1.2-10,1.2S354.4,620.5,353.5,617.9 M341.5,690c-3.2,0-5-0.5-5.9-1.3c-1-1.1-1.6-2.6-1.5-4.2l0.2-0.2
			c1.9,0.6,3.9,0.9,5.9,0.9c4.4,0,8.5-1.8,8.5-6.4c0-2.8-1.8-4.1-4.4-5c-3.2-0.8-6.5-1.3-9.7-1.6l-0.8-1.2
			c0.9-5.3,3.1-14.6,3.8-16.1c2.2,0.1,14.5-0.7,16.2-1.2l0.1,0.2c-0.3,1.9-1.1,4-2.2,4.9c-1.3,1.1-4.4,1.4-10.4,1.7
			c-0.6,2.2-1.1,4.3-1.5,6.5c2.7,0.3,5.4,0.9,8,1.5c5.5,1.6,8.2,4.3,8.2,9.6C356,685.5,349.1,690,341.5,690 M318.7,684.2
			c-4.4,4.4-9.6,5.7-12,5.7c-0.8,0.1-1.7-0.1-2.4-0.5c-1-0.7-1.6-1.9-1.7-3.1l0.1-0.2c3.2-0.4,7.6-1.8,10.6-4.9
			c3.5-3.6,4.4-8.5,4.4-13.4c0-5.5-1.7-9.4-5.1-9.4c-3,0-4.7,3-4.7,6.2c0,4.6,2.8,6.2,5.3,6.2c0.9,0,1.8-0.2,2.7-0.6
			c0,1.5-0.5,3.1-1.4,4.3c-1.3,0.9-2.9,1.3-4.5,1.2c-5.4,0-9-3.9-9-10c-0.1-6.5,5-11.8,11.5-11.9c0.2,0,0.3,0,0.5,0
			c8.2,0,11.9,7,11.9,14.6C325.1,674.3,322.8,680.1,318.7,684.2 M285.7,620.1c-1.2,0.7-5.4,1.2-8.2,1.2c-2.2-9.2-8-27.7-14.1-47.9
			c-2.1,7.7-10.3,33.7-13.3,42.8c-0.8,2.2-1.3,3.4-2.6,3.8c-2.7,0.9-5.6,1.3-8.4,1.4c-1.7-5-8.7-27.7-14.5-44.7
			c-2.5-7.3-5.2-15.7-6.7-19.4c3.2-0.7,6.5-1.2,9.8-1.3c1.7,0,2.8,0.7,4,5.1c2.4,8.5,7.1,23.4,13,44.5c2.7-8.4,8.3-27.3,13.5-44.4
			c0.2-1.1,0.1-2.2-0.1-3.2c2.6-1.2,5.4-1.9,8.2-2c1.6,0,2.2,0.9,2.8,2.5c1.9,5.6,7.4,23.3,14.3,46.7c9.2-28.7,13.4-41.4,15.9-49.2
			c2.4,0,4.8,0.2,7.2,0.5c2.2,0.4,2.8,1.7,2.1,3.6c-0.4,1.1-2,5.7-5.8,16.1c-4.6,12.3-10.3,29.2-14.6,40.1
			C287.9,618.5,287.1,619.6,285.7,620.1 M286.8,688.5c-2,0.2-4.8,0.2-5.9,0.2c0-3.1,0.1-15.4,0.1-27.9c-2.5,0.8-5.1,1.5-7.7,2
			l-0.2-0.2l1.4-4.1c4.6-1.4,10.8-3.6,13.1-4.7l0.3,0.2c0,3.8,0.2,28.2,0.2,32.9C288.2,688,287.7,688.3,286.8,688.5 M244.5,688.9
			c-2.2,0-4-1.7-4-3.8c0-0.1,0-0.3,0-0.4c-0.2-2.3,1.5-4.3,3.8-4.5c0.2,0,0.3,0,0.5,0l0,0c2.2,0,4,1.9,3.9,4.1c0,0.1,0,0.2,0,0.2
			c0.2,2.3-1.5,4.3-3.7,4.4C244.8,688.9,244.6,688.9,244.5,688.9 M226.2,680.1c0.3,2.7,1.8,3.8,3.7,3.8c1.4,0,2.7-0.4,3.9-1l0.2,0.1
			c0.3,1.5,0,3.1-1,4.2c-1.4,1.2-3.7,1.8-6.2,1.8c-5.7,0-7.6-3.8-7.6-7.8v-13.4c-2.2,0-3.2-1-3.2-1.7c0.8-1.5,5.4-5.8,6.3-6.5
			c1.2-1.1,2.7-1.7,4.3-1.8c-0.2,1.8-0.3,3.6-0.3,5.3h8.2c-0.7,4.1-1.9,4.3-3,4.5s-3.1,0.2-5.4,0.2
			C226,672.4,226.1,677.8,226.2,680.1 M212.8,620.4c-1.8,0.6-8.1,0.8-10.1,0.8c-0.9,0-1.9-0.2-1.9-2v-28c-4.2,0.5-8.5,0.6-12.7,0.5
			h-18.4V618c0,2.3-0.8,2.7-3.3,3c-1.9,0.1-7.3,0.2-8.6,0.2c0.3-4.2,0.3-10.1,0.3-18.7v-32.7c0-6.9,0-10.8-0.3-13.1
			c3.3-0.5,6.5-0.7,9.8-0.8c1.7,0,2,0.9,2,5.8v21.5h31.2v-24.1c0-2.3,0.8-2.7,2.6-3s6.6-0.3,9.4-0.3c-0.3,4.2-0.4,9.8-0.4,18.4v33.4
			C212.4,614.8,212.7,618,212.8,620.4 M200.4,689c-2.1,0-4.1-0.5-5.9-1.5c-0.9-0.4-1.5-1.3-1.5-2.4c0-1.2,0.4-2.4,1.3-3.2
			c2,1.3,4.2,2,6.5,2.1c1.9,0,3.1-0.8,3.1-2.3c0-0.9-0.5-1.6-2-2.4s-2.9-1.5-4.5-2.4c-2.4-1.2-4-3.7-3.9-6.5c0-5.2,4.3-8.1,9.2-8.1
			h0.1c2.3-0.1,4.5,0.7,6.3,2c0,1.8-0.8,4.2-2.9,3.8c-1.1-0.5-2.4-0.8-3.6-0.9c-1.6,0-2.8,0.8-2.8,2s0.8,1.8,2,2.5s3.6,1.8,4.7,2.4
			c3,1.7,4,3.8,4,6.3C210.6,686.2,205.6,689,200.4,689 M184.4,688.4c-2.5,0.3-5,0.4-7.6,0.3c-3.4,0.1-6.8-0.1-10.2-0.6l-0.9-1.2
			v-26.4c0-2.8,0-4.8-0.1-7.2c2.1-0.5,4.3-0.8,6.5-0.8h13.7c-0.1,1.7-0.7,3.4-1.8,4.8c-0.9,0.4-2.8,0.4-5.3,0.4h-5.8v9.6h12.3
			c-0.6,4.4-1.8,5.2-3.7,5.2h-8.6v10.7c1.7,0.3,3.4,0.4,5.1,0.3c2.3,0,6.6,0,9.3-0.2v0.1C186.9,686.1,185.7,687.5,184.4,688.4
			 M135.5,613.2c5.2,0,10.3-0.9,15.1-2.8l0.1,0.4c0,3-1.3,6.8-3.5,8.5c-1.9,1.4-6.5,3-15.1,3c-23.2,0-36-13.5-36-32.6
			c0-22.2,16.2-34.5,36.4-34.5c10,0,17.5,3.7,19.4,6c-0.3,2.1-1.1,4-2.4,5.7c-0.9,0.8-2,0.9-3.4,0.1c-4.6-2-9.5-3-14.4-3
			c-11.4,0-23,8.1-23,24.1c0,15,9.1,25.2,27,25.2 M66.7,622.5c-7.8,0-13.6-2.5-16.2-4.5c-1.2-0.7-2-2-2.1-3.4
			c0.2-2.1,0.8-4.1,1.8-5.8c4.9,3.5,10.7,5.5,16.7,5.7c7.6,0,13.9-3.8,13.9-11.5c0-7.2-4-10.5-14.9-16.3c-14.5-8-16.5-15-16.5-22.6
			c0-7.4,5.1-19.7,23.1-19.7h0.1c5,0,12.3,2,15.7,5.3c-0.1,2.6-1.9,6.3-5,5.7c-3.5-1.9-7.5-2.9-11.5-3c-6.1,0-12.2,3.1-12.2,10.4
			c0,7.1,4.5,10.4,14.6,15.8c12.5,7,17,11.7,17,22.3c0,13.4-11.2,21.6-24.8,21.6 M53.1,352.4c0,0,18-9.6,47.9-18.1
			s49.1-10,64.3-11.3s39.8-2,60.4,0.7c19.7,2.3,39.1,7,57.8,13.9c23.7,8.4,39,18.5,52.8,27.7s29.2,24.1,32,26.6s6.9,6.9,6.9,6.9
			s0.9-10.3,0.7-20.5c-0.1-11.2-1-22.4-2.8-33.5c-2-12.4-7-29.2-10.2-40.7s-10.4-31.5-15.1-43.4c-4.6-11.9-15.2-40.3-19.9-52.4
			s-12.8-31.3-16.1-45.6c-3-13.2-5.9-23.4-4.3-45.9c1.4-18.9,8.8-32,17.1-41s18.7-16,30.9-17.2c15.7-1.6,25.1,1.3,32.5,4.4
			c7.4,2.9,13.9,7.8,18.8,14.1c3.7,4.5,5.7,10.1,5.9,15.9c0.4,5.6,0.8,6.7,3.7,8.8c4.1,3,8.8,5.6,13.6,9c4.2,2.9,7.4,5.2,8.7,7.1
			s0.5,4,0.5,4.6s-1.1,1.2-2.8,0.2s-15.4-6.9-21.4-9.7c-5.6-2.6-11.1-5.6-16.3-9c-3.3-2.4-5.9-5.7-7.4-9.6
			c-1.1-2.7-4.1-10.7-8.4-14.5c-5.8-5.5-13.6-8.5-21.6-8.4c-10.2,0.2-21.2,6.5-26.9,13.4s-11.9,20.5-12.9,27.2
			c-1.3,9.4-2.2,22.7,1.5,37.3c4.4,17.2,12.8,40.8,19.3,54.1c3.9,8,22,44.2,26.2,52.8c6.9,14.4,15.9,32.1,24.9,54.5
			c4,10.1,13.3,38.6,15.3,55.2c2.7,21.8,1,41.1-2.7,54.5s-8,19.5-8.8,20.8s-1.8,3.1-3.9,3.1s-4.5-4.4-6.5-8.2
			c-4.5-7.7-9.8-15-15.8-21.6c-7.1-7.7-23-22.6-32.7-29.9c-12.7-9.3-26.4-17.3-40.9-23.7c-13.5-5.8-35.2-13.3-53-16.1
			c-15.2-2.5-30.6-3.8-46.1-3.8c-16.2,0.1-41.1,2.9-55.4,5.5c-12.8,2.4-32,7.6-41.4,10.5S72,368.8,72,368.8s0.4,14.3,2.9,22.1
			c4.3,13.1,12.4,25.6,16,30.3c4.9,6.5,14.1,19.3,18.2,23.5s11,12,12.3,13.6s3,3.1,2.6,3.8s-22.3-11.5-39.6-33.5s-25.1-43-28.2-57.8
			S53.1,352.4,53.1,352.4 M483.4,442.6c14.3,0.6,28.6,2.4,42.6,5.4c7.1,1.5,14.1,3.3,21,5.5V0H0v734.2h436.6
			c60.9,0,110.4-50.8,110.4-113.6V466.5c0,0-22.3-8.3-39.6-12.2c-19.8-4.3-39.8-7.5-60-9.4C459.3,442.9,471.4,442.1,483.4,442.6"/>
		<polygon id="Triangle-3" class="st0" points="334.5,576 344.2,595.9 324.9,595.9 		"/>
	</g>
</g>
</svg>
