<svg id="Layer_1" data-name="Layer 1" xmlns="http://www.w3.org/2000/svg" viewBox="0 0 615.67 724.91"><defs><style>.cls-1,.cls-2{fill:#d22031;}.cls-2{font-size:19.02px;font-family:Arial;}</style></defs><title>newlogo</title><g id="About-Us"><g id="Group-12"><path id="Fill-3" class="cls-1" d="M482.14,459.64s-42.36-4.19-56.1-4.39c-16-.22-51.11,2.47-72.29,5.35s-71.16,11.47-94.58,15.3S165,493.1,115.37,492.53s-76.73-7.08-88.23-9.78S0,474.36,0,474.36V445.88S22.46,457,39.4,461.18s45.31,11.08,84.15,10.9,86.59-5.94,109.05-8.81,75.08-9.37,92.55-11.11,52.94-3.23,65.42-3.42,40.11,1.16,56.1,3.42c13.84,2,35.48,7.48,35.48,7.48m-1.43,109.85c12.53,7.05,17,11.71,17,22.31,0,13.37-11.23,21.62-24.78,21.62-7.82,0-13.58-2.53-16.23-4.55-1.42-1.07-2.1-2.13-2.1-3.44a13.59,13.59,0,0,1,1.84-5.84,30.42,30.42,0,0,0,16.68,5.7c7.57,0,13.92-3.81,13.92-11.46,0-7.24-3.94-10.47-14.85-16.32-14.36-7.89-16.33-14.92-16.33-22.56,0-7.39,5.11-19.69,23.1-19.69h0.1c4.94,0,12.28,2,15.65,5.26-0.14,2.62-1.88,6.3-5,5.69a25.67,25.67,0,0,0-11.46-3c-6.13,0-12.15,3.11-12.15,10.41,0,7.14,4.53,10.37,14.61,15.83m-28.55-30.92a25.8,25.8,0,0,0-5.54,12.55,30.24,30.24,0,0,0-.12,4.39,8.3,8.3,0,0,1-5.7.62c-2.24-.56-2.7-4-2-6.79l0-.1c1.41-5.83,6.3-11.93,10.18-14.12,1.82-1,3.94-1.1,7-.19-0.94,1-2.72,2.32-3.83,3.64M428.7,565.76v45.18c-1.18.55-6.84,1.21-8.84,1.21-1.54,0-2.5-.52-3.95-2.27-4.43-6-12.87-16.65-22.2-30.2-3.84-6.23-6.83-11.12-11.43-19.22,0.65,10.31.65,16.36,0.65,22.86v25.59c0,2.19-.65,2.58-2.51,2.84a57.68,57.68,0,0,1-7.65.4c0.28-4.31.28-10.14,0.28-18.78V552.06l-2.21-3.64v-0.67c2.21-.44,10.63-0.82,11.81-0.82,1.33,0,2,.55,3,1.74,3,3.8,13.27,19.1,22.61,31.26,4.18,5.68,8.41,12.45,11.18,17.18-0.53-8.1-.53-13.25-0.53-20V550c0-2.28.53-2.55,2.08-2.73a63.85,63.85,0,0,1,7.92-.37c-0.15,4.34-.26,10.13-0.26,18.82m-46.06,113c-0.62.38-2.54,0.72-5.6,0.72-6.44,0-11.3,0-14.28-.59l-0.32-.63,1.05-2.49c8.64-9.2,12.23-14.84,12.23-19.92,0-3.17-1.53-5.51-5-5.51-2.38,0-5,1.78-5.84,2.48-1.07.78-1.86,0.73-2.46-.81a4.25,4.25,0,0,1-.39-2,14.22,14.22,0,0,1,11-5.27c5.93,0,9.83,3.93,9.83,10.11a15.61,15.61,0,0,1-2.64,8.25c-1.64,2.75-5,6.69-9.19,11a141.46,141.46,0,0,0,14.5,0,7.57,7.57,0,0,1-2.88,4.62M353.5,608.91c-2-4.86-3.43-8.54-6.06-14.87H322.3c-3,6.89-6,13.81-7.23,16.36-0.53,1.52-1.33,1.75-2.66,1.75a38.55,38.55,0,0,1-8.77-1.05v-0.44c5.88-13.26,22.61-50.74,26.16-59.54l-0.92-2.84a69.44,69.44,0,0,1,10.27-1.33c1.18,0,1.71.55,2.5,2.41C346.52,560.86,354.4,581,358,589.69c4.33,10.45,7.48,17.35,9,20.85v0.4c-1.56,1-8.3,1.21-10,1.21s-2.64-.66-3.53-3.24m-12,72.09c-3.18,0-5-.52-5.93-1.29a6.09,6.09,0,0,1-1.54-4.18l0.23-.24a21.31,21.31,0,0,0,5.87.92c4.37,0,8.54-1.83,8.54-6.38,0-2.8-1.77-4.12-4.43-5a63.83,63.83,0,0,0-9.74-1.63L333.7,662c0.94-5.34,3.13-14.64,3.79-16.14,2.2,0.06,14.55-.66,16.22-1.19l0.1,0.23c-0.32,1.92-1.11,4-2.23,4.86-1.32,1.11-4.35,1.39-10.36,1.7a61.86,61.86,0,0,0-1.49,6.55,61.49,61.49,0,0,1,8,1.54c5.5,1.63,8.25,4.33,8.25,9.56,0,7.4-6.84,11.85-14.45,11.85m-22.85-5.72c-4.39,4.43-9.58,5.72-12,5.72a4.52,4.52,0,0,1-2.4-.52,4.28,4.28,0,0,1-1.74-3.12l0.07-.24c3.24-.44,7.61-1.77,10.65-4.93,3.49-3.62,4.42-8.46,4.42-13.36,0-5.5-1.67-9.4-5.12-9.4-3,0-4.71,3-4.71,6.18,0,4.6,2.79,6.21,5.31,6.21a8,8,0,0,0,2.71-.59,6.75,6.75,0,0,1-1.41,4.28,7.41,7.41,0,0,1-4.48,1.24c-5.37,0-9-3.87-9-10A11.73,11.73,0,0,1,313,644.77c8.16,0,11.89,7.05,11.89,14.58a21.57,21.57,0,0,1-6.24,15.94m-33-64.19c-1.18.66-5.38,1.21-8.17,1.21-2.25-9.2-8-27.73-14.07-47.91-2.1,7.71-10.26,33.7-13.31,42.75-0.75,2.18-1.28,3.39-2.61,3.79a28.26,28.26,0,0,1-8.41,1.37c-1.71-5-8.72-27.73-14.49-44.67-2.52-7.32-5.25-15.69-6.69-19.36a53.87,53.87,0,0,1,9.84-1.33c1.71,0,2.78.67,4,5.12,2.36,8.52,7.1,23.43,13,44.55,2.74-8.4,8.29-27.35,13.53-44.4a9.23,9.23,0,0,0-.11-3.24,21.05,21.05,0,0,1,8.25-2c1.59,0,2.23.92,2.78,2.54,1.86,5.57,7.39,23.31,14.33,46.7,9.2-28.69,13.42-41.43,15.92-49.24a54.46,54.46,0,0,1,7.23.55c2.25,0.37,2.78,1.74,2.12,3.62-0.41,1.1-2,5.68-5.81,16.13-4.61,12.32-10.26,29.22-14.59,40.06-0.54,2.15-1.29,3.24-2.74,3.8m1.12,68.33c-2,.18-4.84.23-5.86,0.23,0-3.07.14-15.37,0.14-27.9a65.76,65.76,0,0,1-7.71,2l-0.18-.25,1.4-4.06c4.62-1.39,10.82-3.62,13.14-4.65L288,645c0,3.85.19,28.25,0.19,32.88,0,1.16-.48,1.39-1.46,1.51m-42.24.51a3.93,3.93,0,0,1-4-4.25,4.19,4.19,0,0,1,4.34-4.52h0a4,4,0,0,1,3.92,4.31,4.11,4.11,0,0,1-4.29,4.46m-18.22-8.81c0.28,2.73,1.77,3.78,3.68,3.78a8.65,8.65,0,0,0,3.92-1l0.17,0.11a5.05,5.05,0,0,1-1,4.25c-1.35,1.21-3.69,1.78-6.21,1.78-5.73,0-7.55-3.76-7.55-7.81v-13.4c-2.19,0-3.18-1-3.18-1.73,0.79-1.55,5.37-5.8,6.34-6.52a6.73,6.73,0,0,1,4.29-1.8,45.31,45.31,0,0,0-.32,5.34h8.22c-0.67,4.07-1.92,4.35-3,4.47s-3.11.24-5.36,0.24c-0.24,4.56-.1,10,0,12.34m-13.48-59.76c-1.82.56-8.14,0.8-10.12,0.8-0.95,0-1.86-.24-1.86-2v-28a97.65,97.65,0,0,1-12.73.55H169.68v26.25c0,2.29-.81,2.72-3.28,3-1.86.13-7.26,0.24-8.55,0.24,0.27-4.2.27-10.14,0.27-18.66V560.86c0-6.89,0-10.82-.27-13.1a84.06,84.06,0,0,1,9.84-.82c1.71,0,2,.92,2,5.82v21.51h31.16V550.18c0-2.32.8-2.69,2.62-3s6.58-.27,9.36-0.27c-0.26,4.17-.39,9.85-0.39,18.38v33.44c0,7.06.26,10.3,0.39,12.6M200.4,680a11.64,11.64,0,0,1-5.88-1.49,2.54,2.54,0,0,1-1.5-2.36,4.69,4.69,0,0,1,1.27-3.25,13.23,13.23,0,0,0,6.53,2.14c1.91,0,3.13-.8,3.13-2.28,0-.91-0.52-1.59-2-2.44s-2.85-1.45-4.52-2.37a7,7,0,0,1-3.88-6.47c0-5.25,4.34-8.07,9.23-8.07h0.05a10.31,10.31,0,0,1,6.34,2c0,1.75-.75,4.22-2.89,3.78a9.21,9.21,0,0,0-3.6-.89c-1.63,0-2.75.81-2.75,2.05s0.79,1.84,2,2.51,3.59,1.77,4.66,2.4c3,1.71,4,3.84,4,6.28,0,5.7-5,8.45-10.12,8.45m-16.11-.63a56.93,56.93,0,0,1-7.56.29,62.84,62.84,0,0,1-10.16-.58l-0.9-1.16V651.49c0-2.77,0-4.76-.14-7.22a30.69,30.69,0,0,1,6.49-.82h13.71a8.42,8.42,0,0,1-1.77,4.76c-0.85.41-2.8,0.41-5.28,0.41h-5.82v9.61h12.31c-0.61,4.44-1.77,5.19-3.73,5.19h-8.58v10.7a29.34,29.34,0,0,0,5.12.35c2.28,0,6.57,0,9.33-.24l0,0.14c-0.52,2.69-1.68,4.18-3.08,5m-48.81-75.2a41.25,41.25,0,0,0,15.1-2.8l0.15,0.38c0,3-1.33,6.77-3.53,8.54-1.87,1.36-6.47,3-15.13,3-23.15,0-36-13.52-36-32.62,0-22.19,16.15-34.52,36.42-34.52,10,0,17.49,3.65,19.36,6a12.68,12.68,0,0,1-2.4,5.71c-0.91.78-2,.93-3.41,0.12a35.69,35.69,0,0,0-14.45-3c-11.43,0-23,8.1-23,24.11,0,15,9.09,25.15,27,25.15m-68.91,9.26c-7.81,0-13.59-2.53-16.24-4.55a4.28,4.28,0,0,1-2.07-3.44,13.47,13.47,0,0,1,1.83-5.84,30.44,30.44,0,0,0,16.69,5.7c7.56,0,13.93-3.81,13.93-11.46,0-7.24-4-10.47-14.86-16.32C51.49,569.62,49.51,562.59,49.51,555c0-7.39,5.11-19.69,23.08-19.69h0.1c5,0,12.29,2,15.66,5.26-0.14,2.62-1.87,6.3-5,5.69a25.65,25.65,0,0,0-11.46-3c-6.12,0-12.16,3.11-12.16,10.41,0,7.14,4.53,10.37,14.61,15.83,12.54,7.05,17,11.71,17,22.31,0,13.37-11.24,21.62-24.78,21.62m-13.42-270s18-9.56,47.91-18.15,49.07-10,64.29-11.29,39.77-2,60.37.69a252.41,252.41,0,0,1,57.79,13.85c23.69,8.43,39,18.55,52.78,27.71s29.16,24.09,32,26.58,6.86,6.89,6.86,6.89,0.94-10.33.74-20.46a227.19,227.19,0,0,0-2.8-33.48c-2-12.41-7-29.25-10.21-40.72s-10.43-31.53-15.06-43.39-15.23-40.34-19.86-52.4S315.17,168,311.83,153.67c-3-13.2-5.9-23.35-4.27-45.88,1.42-18.94,8.75-32,17.1-41s18.72-16,30.92-17.21c15.72-1.59,25.1,1.34,32.54,4.4A43.69,43.69,0,0,1,406.88,68.1,26.59,26.59,0,0,1,412.8,84c0.42,5.55.78,6.65,3.72,8.8,4.12,3,8.75,5.63,13.61,9,4.19,2.92,7.42,5.16,8.7,7.08s0.55,4,.55,4.58-1.12,1.16-2.75.18-15.43-6.88-21.38-9.74a138.07,138.07,0,0,1-16.34-9,22.1,22.1,0,0,1-7.42-9.56c-1.13-2.67-4.12-10.71-8.36-14.54a30.93,30.93,0,0,0-21.58-8.4c-10.25.18-21.18,6.5-26.94,13.38s-11.92,20.46-12.85,27.16c-1.27,9.36-2.22,22.66,1.5,37.27,4.38,17.17,12.83,40.81,19.34,54.1,3.93,8,22.05,44.18,26.23,52.76,6.94,14.44,15.93,32.13,24.87,54.51,4,10.15,13.28,38.61,15.31,55.25,2.66,21.75,1,41.07-2.67,54.5s-8,19.49-8.76,20.82-1.83,3.06-3.88,3.06-4.46-4.39-6.52-8.23a130.74,130.74,0,0,0-15.78-21.59c-7.08-7.66-23-22.58-32.74-29.85a221.18,221.18,0,0,0-40.86-23.7c-13.52-5.75-35.2-13.27-53-16.13a279.5,279.5,0,0,0-46.07-3.76c-16.19.11-41.08,2.88-55.45,5.55-12.83,2.37-32,7.64-41.44,10.5S72,359.84,72,359.84s0.36,14.34,2.87,22.09c4.26,13.11,12.43,25.62,16,30.3,4.88,6.45,14.11,19.3,18.19,23.52s11,12,12.26,13.57,3,3.06,2.6,3.82-22.3-11.47-39.56-33.45-25.09-43-28.25-57.75-3-18.54-3-18.54m430.27,90.25A269.66,269.66,0,0,1,526,439a209.13,209.13,0,0,1,21,5.55V-9H0V725.2H436.63C497.57,725.2,547,674.36,547,611.64V457.53s-22.31-8.33-39.6-12.22a498.46,498.46,0,0,0-60-9.39,172.77,172.77,0,0,1,36-2.27"/><polygon id="Triangle-3" class="cls-1" points="334.52 566.96 344.19 586.93 324.85 586.93 334.52 566.96"/></g></g><text class="cls-2" transform="translate(575.83 32.96)">TM</text></svg>