<?xml version="1.0" encoding="UTF-8" standalone="no"?>
<svg width="180px" height="63px" viewBox="0 0 180 63" version="1.1" xmlns="http://www.w3.org/2000/svg" xmlns:xlink="http://www.w3.org/1999/xlink">
    <!-- Generator: Sketch 3.6.1 (26313) - http://www.bohemiancoding.com/sketch -->
    <title>Fill 1</title>
    <desc>Created with Sketch.</desc>
    <defs></defs>
    <g id="Home-Page" stroke="none" stroke-width="1" fill="none" fill-rule="evenodd">
        <g id="Desktop_10.00_Home-Page" transform="translate(-128.000000, -81.000000)" fill="#2F2F2F">
            <g id="Header_Desktop">
                <g id="WegmansLogo" transform="translate(128.000000, 81.000000)">
                    <path d="M11.3520328,29.6983562 C9.55207388,33.7374812 8.26510605,37.719226 8.74722789,40.1719537 C9.02561255,42.2190813 10.3653388,43.6074602 13.8154003,42.9886528 C16.7659411,42.2972761 21.3542367,39.5733981 22.9207117,38.0719462 C22.9263243,39.7455391 23.4157425,41.2599297 24.5348938,42.2607102 C25.8330868,43.2800548 27.5645721,43.4223805 29.500917,42.9925906 C40.18898,40.6141198 51.5971387,28.3724206 54.5836,16.5385717 C55.7201503,12.0353411 55.9895548,5.01693938 51.9619573,1.6506268 C49.2679122,-0.600707251 45.2964406,-0.739657653 41.8783708,2.42694888 C41.8716357,2.43369951 41.8654618,2.43988759 41.859288,2.44663821 C42.5558109,2.32062651 43.9426829,2.23680623 45.2829704,3.14814085 C46.7871456,4.16973571 47.7519505,6.12291707 48.1571798,8.96211821 C48.7880354,17.7193689 44.3103078,27.5927232 38.4659136,33.3999499 C36.7394796,35.0561037 35.1511155,36.1587061 34.0880902,36.6548771 C32.7539766,37.2764974 31.8604516,37.1696124 31.3390416,36.6351878 C30.035236,35.2974386 31.1678575,32.6382542 31.8301436,31.3826376 C32.3672688,30.3632929 41.5578917,12.9275489 41.5578917,12.9275489 L34.9473783,12.9275489 C34.9473783,12.9275489 27.5741135,26.6510107 25.1556467,31.1503035 C24.4114167,32.3288504 23.2905817,33.3723848 20.7963449,35.2867501 C20.102067,35.8554904 19.4807528,36.2796548 18.9346474,36.572182 C16.2209582,37.9149941 16.2540725,35.9184963 16.9354414,33.6395971 C17.9339219,30.30535 24.3889663,17.7654982 26.9892812,13.9182034 C27.3282819,13.2915202 27.5247227,12.9275489 27.5247227,12.9275489 L20.861451,12.9275489 C20.861451,12.9275489 20.8575221,12.9348621 20.8412456,12.9646774 C20.0150718,14.1302856 19.2309924,15.2857679 18.4867624,16.4384374 C18.3492539,16.6702089 18.1724571,16.966674 17.9631074,17.3182691 C16.9606981,19.0014254 15.8415468,20.8539099 14.1353182,22.6158235 C9.99210125,26.8934707 5.79388088,27.8205568 0.0145927446,28.102958 C0.00954140995,28.1035206 0.00505133468,28.1035206 0,28.1046457 C0.0656673508,28.1766524 0.153785078,28.2672233 0.266598219,28.3696078 C2.67103353,30.5607488 8.46828196,30.6771971 10.978234,29.8260555 C10.978234,29.8260555 11.1376317,29.771488 11.3520328,29.6983562 L11.3520328,29.6983562 Z M130.876714,27.0003557 C131.025448,26.972228 131.173059,26.9553515 131.32067,26.9502885 C132.34104,26.8799695 132.978069,27.9021269 132.88041,28.8252751 C132.880971,28.8309006 132.882094,28.8354011 132.883216,28.8410266 C132.883216,28.8410266 131.93132,30.6181291 131.114127,32.1454584 C131.087748,32.1938379 131.061368,32.2416548 131.036673,32.2900343 C129.831088,34.5514943 128.38809,36.1513929 126.346789,37.3119381 C126.132949,37.4576392 125.818644,37.6033402 125.487501,37.6798473 C124.277987,37.8193603 123.679685,37.0610398 123.889034,35.8425517 C124.490143,32.3367262 128.553661,27.1674337 130.876714,27.0003557 L130.876714,27.0003557 Z M138.065324,34.8963388 L135.33592,36.8433321 C135.039575,34.9092775 141.481149,23.9423217 141.481149,23.9423217 L135.4072,23.9423217 C135.4072,23.9423217 134.935181,24.8598444 134.937426,24.779962 C134.938548,24.7265195 132.578453,22.7114574 128.361711,24.5909444 C127.282409,24.9025984 125.614907,25.9236307 123.91373,27.3941422 C118.659219,31.9339388 121.389746,30.116895 116.172279,34.1188917 C114.767446,35.1961792 113.634264,36.0405701 113.634264,36.0405701 C114.348186,34.5284297 114.98746,33.2064319 115.544229,32.0723266 C115.571731,32.0155088 115.600917,31.9586911 115.62898,31.9013107 C116.871047,29.4002035 117.94193,26.8293398 117.806666,25.3121364 C117.543435,23.5597862 115.70475,22.1055887 107.712977,26.949726 C107.630472,26.9997931 106.962012,27.4683991 106.397946,27.8621857 C106.724599,26.8698435 106.902518,25.9866365 106.842464,25.3121364 C106.579794,23.5597862 104.740547,22.1055887 96.7487744,26.949726 C96.6920872,26.9834791 96.3626279,27.213563 95.9781652,27.4819004 L97.8460365,24.0019522 C97.8696094,23.95076 97.8707319,23.9501974 97.8707319,23.9501974 L91.8899517,23.9501974 L82.3844623,41.6835316 L88.3557012,41.6835316 C88.3557012,41.6835316 88.3753452,41.6464031 88.4112659,41.5777718 L94.0395752,31.0934857 C95.207556,30.1827137 96.0864883,29.5937215 97.3330454,28.7847714 C98.3275971,28.1682141 99.2430112,27.763739 99.6263514,28.0298263 C99.8042706,28.1524626 99.8682542,28.5597505 99.8222309,28.732454 C99.679671,29.2590029 99.1992329,30.2170293 99.0589181,30.4842417 C98.9163582,30.7542667 93.145489,41.6835316 93.145489,41.6835316 L99.4899653,41.6835316 C99.4899653,41.6835316 99.5084869,41.6413402 99.5449687,41.5637079 C99.5449687,41.5637079 101.665407,37.5937768 103.26668,34.595936 C103.864421,33.4787072 104.510992,32.2444676 105.090773,31.0259795 C106.216098,30.1534609 107.08156,29.5734696 108.297809,28.7847714 C109.2918,28.1682141 110.207214,27.763739 110.590554,28.0298263 C110.768473,28.1524626 110.832457,28.5597505 110.786433,28.732454 C110.643874,29.2590029 110.163997,30.2170293 110.023121,30.4842417 C109.994496,30.5376841 109.749787,31.0012272 108.861875,32.6838209 L108.865242,32.6838209 C107.892019,34.4901761 106.701026,36.766825 106.035373,38.5321139 C105.451663,40.0830705 105.403956,42.0041863 107.407652,42.1757648 C109.349048,42.2967135 111.891553,40.427915 112.876563,39.679158 C114.161848,38.7031298 116.832881,36.3038445 118.210212,35.1101087 C117.559712,36.9040878 117.377864,38.764448 117.962135,40.5494263 C118.010403,40.6906269 118.066529,40.8267645 118.130513,40.9572766 C119.377631,43.4960749 122.732279,42.9076452 125.185544,41.4641362 C126.873812,40.45548 128.331403,39.0626007 128.331403,39.0626007 C128.331403,39.0626007 128.131594,42.4671668 130.841916,42.5014825 C133.108843,42.5262348 138.513209,37.9886885 140.306995,36.4259184 L137.488911,41.6835316 L143.46015,41.6835316 C143.46015,41.6835316 143.479233,41.6464031 143.515715,41.5777718 L149.144024,31.0934857 C150.312566,30.1827137 151.190376,29.5937215 152.438055,28.7847714 C153.432046,28.1682141 154.346337,27.763739 154.7308,28.0298263 C154.908158,28.1524626 154.973264,28.5597505 154.92668,28.732454 C154.784681,29.2590029 154.304243,30.2170293 154.163367,30.4842417 C154.13362,30.5404969 153.861971,31.0546696 152.937015,32.8064573 L152.926912,32.8064573 C151.965475,34.5925606 150.813209,36.8067662 150.16271,38.5321139 C149.618288,39.9778732 149.540834,41.7471 151.157823,42.1178219 C153.447761,42.662935 156.402792,40.6321214 158.051211,39.2386796 C158.989075,38.5557411 159.713661,37.9785625 160.164352,37.6067155 C160.28783,38.4747336 160.634127,39.3129364 161.142628,40.0605684 C164.036481,44.3190888 170.576276,43.0690977 172.939178,42.0503156 C176.465571,40.5314246 179.670362,36.9153388 174.449527,28.8157117 C173.823161,27.8453091 173.495947,26.8720937 173.839438,26.1233367 C174.13915,25.469651 174.721176,24.8103398 175.989061,25.0128586 C177.18735,25.2710701 176.63002,27.6562916 175.986255,28.6897 C178.984503,28.6851996 180.925899,27.1966864 179.548569,24.8761584 C179.046241,24.0250169 175.719096,21.672986 171.735838,25.1152431 C169.579479,26.9767285 168.899233,30.6653835 170.487597,34.5891853 C171.096002,36.0957002 171.335098,37.2174294 171.332853,38.0516943 C171.328363,39.6375291 170.327638,40.5162357 168.769582,40.5162357 C166.48694,40.5162357 164.772292,38.2992173 165.126447,36.0816364 C165.357686,34.6364397 166.344941,33.0151642 168.427213,31.5199003 C166.13503,30.9342834 164.355838,31.3500095 163.019479,32.2208404 C161.78976,33.0168518 160.995578,33.9388749 160.553305,34.9014018 C160.174455,35.1978668 159.73106,35.5410237 159.207966,35.9415609 C157.804257,37.0188484 156.671635,37.8632393 156.671635,37.8632393 C157.117836,36.9159014 158.62594,34.2224013 159.012087,33.4247022 C159.768103,31.8636197 162.604147,26.8636555 161.85655,24.9166622 C161.365448,23.3735814 159.230978,22.4768731 151.853223,26.949726 C151.797097,26.9834791 151.466515,27.213563 151.083175,27.4819004 L152.950485,24.0019522 C152.975181,23.95076 152.975181,23.9501974 152.975181,23.9501974 L146.9944,23.9501974 C146.9944,23.9501974 146.461765,24.9442272 145.498644,26.7415816 C143.92824,29.4778357 143.61618,30.934846 138.065324,34.8963388 L138.065324,34.8963388 Z M78.1340448,27.0003557 C78.2822173,26.972228 78.4303898,26.9553515 78.578001,26.9502885 C79.5978094,26.8799695 80.484038,27.9021269 80.3863788,28.8252751 C80.3875013,28.8309006 80.3880626,28.8354011 80.3891851,28.8410266 C80.3891851,28.8410266 79.4378504,30.6181291 78.6200955,32.1454584 C78.5937163,32.1938379 78.5678983,32.2416548 78.5426417,32.2900343 C77.3370565,34.5514943 75.8940585,36.1513929 73.8521968,37.3119381 C73.6422858,37.455389 73.255578,37.5982772 72.8626964,37.6759094 C71.5414918,37.8193603 70.8909921,36.8455823 71.2344829,35.4138869 C72.0701982,31.9316886 75.9041612,27.160683 78.1340448,27.0003557 L78.1340448,27.0003557 Z M53.6715535,32.7350132 C53.6715535,32.7350132 53.672676,32.733888 53.6833399,32.7068855 C54.0548937,30.9854757 54.7985624,29.1785579 56.7915945,27.8239321 C58.8536616,26.422052 59.9868444,26.842841 60.3544693,27.6298516 C60.9954275,29.0036042 58.8744282,30.546685 57.9679943,31.1328644 C56.3790689,32.1600848 54.7856534,32.5853743 54.0335658,32.652318 L53.6715535,32.7350132 Z M82.2357286,25.3914563 C82.230116,25.3841431 82.2245034,25.377955 82.2188908,25.3717669 C82.0561256,25.1821868 81.8956054,25.0117335 81.7373302,24.8587193 C80.6002187,23.7594922 78.9040927,23.5299709 77.4335931,23.7780565 C74.5756602,24.1971579 72.0123884,26.1818422 70.1860503,27.9741336 C68.8199449,29.3146956 67.2467348,31.1075495 66.2684597,32.1679605 C65.9648183,32.4616128 65.6521968,32.7614531 65.336769,33.0607309 C63.7315671,34.5801845 58.6740586,38.1231385 55.5371798,37.9093686 C54.4365501,37.8351117 53.640123,37.3411909 53.3970976,36.2852803 C53.3954139,36.2779671 53.3937301,36.2712165 53.3920463,36.2639033 C53.4128129,36.2627782 53.4335795,36.2622157 53.4532236,36.2622157 C54.3843529,36.2346506 56.2101298,35.8014854 57.6643529,35.2164311 C60.1642023,34.3394121 63.1203556,32.8233339 64.9124569,30.2738471 C65.4288156,29.5391539 65.8480764,28.7189527 66.1320736,27.8031177 C66.615318,26.2465357 66.73655,23.4962178 62.4928676,23.6149163 C60.234921,23.6779222 57.9685555,24.424429 55.8829156,25.609164 C52.3200408,27.493714 48.7431346,31.2324361 47.601533,35.1241725 C46.6973441,38.2080839 47.067214,41.7319111 51.180123,42.5318603 C51.7683228,42.6471836 52.3812181,42.6809367 52.9817657,42.6494338 C57.0391099,42.4396018 62.2116766,38.9354639 65.3103898,35.9196214 C64.8389319,37.7242889 64.8658724,39.523331 65.7492947,41.0315335 C66.0708963,41.580022 66.5322516,42.0401897 67.1631072,42.3760334 C69.1718546,43.3351849 71.9439148,42.1442619 73.67091,40.7401315 C73.867912,40.5798041 74.0665979,40.4217269 74.2692125,40.2715255 C74.2692125,40.2715255 72.450732,43.6670908 71.4095958,45.6112713 C69.6399449,48.9168282 65.888487,54.9890171 61.0751263,56.8465645 C57.8675288,58.0841795 55.2037917,56.5973539 55.578713,53.3694292 C55.6651469,52.5075991 55.866639,51.7886574 55.92501,51.5720748 C55.92501,51.5720748 55.892457,51.590639 55.8352085,51.6260798 C53.6889525,52.9559533 52.5574536,55.5200664 52.8869128,57.4265559 C53.0681996,59.3330454 54.1800545,61.4330529 57.6475151,62.1908108 C66.8639559,63.6427581 74.0823131,51.7695306 76.9278983,46.4663507 C78.0464883,44.3809695 89.0331413,23.9063184 89.0331413,23.9063184 C86.615797,23.9063184 83.3498285,23.9119439 83.0276656,23.9125064 L82.2357286,25.3914563 Z" id="Fill-1"></path>
                </g>
            </g>
        </g>
    </g>
</svg>