<?xml version="1.0" encoding="utf-8"?>
<!-- Generator: Adobe Illustrator 22.0.1, SVG Export Plug-In . SVG Version: 6.00 Build 0)  -->
<svg version="1.1" id="Layer_1" xmlns="http://www.w3.org/2000/svg" xmlns:xlink="http://www.w3.org/1999/xlink" x="0px" y="0px"
	 viewBox="0 0 122.3 150" style="enable-background:new 0 0 122.3 150;" xml:space="preserve">
<style type="text/css">
	.st0{fill-rule:evenodd;clip-rule:evenodd;fill:#65943F;}
</style>
<path class="st0" d="M15.4,95.8C8.2,92.2,0.9,87.1,4.7,82.4C0,74-3.1,53.9,5,56.4c-1.3-12.5,0.6-30.5,8.4-24.5
	c8.2-11.8,14.1-15.6,15.6-6.9c1.2,8.7,5.1,22.5,5.1,22.5c4.7,0.4,13.7,2.3,19.7,5.9c-18.1,18-29.5,49.3-0.6,43.5
	c-0.9,3.7,18.2,13.1,32.7-7.8c0.2-0.2-23.8,13.4-30.2,3.5c-32,6-7.5-30.1,3.4-38.9c4.4-3.5,10-6.4,17.4-8.1
	c4.6-11,13.1-37,29.2-36.4c-4.3-0.7-6.6-0.3-9.4,1.2c-4.1-1.6-1.1-10.5,4-8.4c1.3-2.4,7.1-2.9,8,0.1c4-0.1,5.8,1.9,5.8,3.5
	c2.3,3,2.3,6.5,1.1,8.4c-1.1,1.9,1,4.3,1,4.3l6,4.1l-6.6,2.4c0,0,2.5,7.9-3.5,10.1c-6,2.1-8.1-3.6-8.1-3.9c0.2,2.9,2.9,6.7,5.7,6.6
	c1,2.8,14.2,30.4,2.1,52.2c-12.1,21.9-40.8,31.6-43.1,32.4c-2.5,7.1-6.1,9.4-6.1,9.4l2.6,9l10.1-0.4c4.2-0.2,6.5-1.7,5.7,0.2
	c-0.9,1.9-6.8,3.7-10.5,3c3.2,2.2,6.3,4.9,5.5,6.4c-0.7,1.5-9.2-4.9-10.4-5.8c-3.5,1.1-9.6,2.2-10.5,0.1c-0.8-2.2,1.3-1.2,3.9-1.2
	c2.6,0,4.2-1.9,4.2-1.9l-3.4-9.3c-2.4-1.1-6.2-5.1-7.1-11.5C37.9,115.5,27.3,116.3,15.4,95.8L15.4,95.8z"/>
</svg>
