<svg id="Layer_1" data-name="Layer 1" xmlns="http://www.w3.org/2000/svg" viewBox="0 0 21.21 21.43"><defs><style>.cls-1{fill:#65943f;fill-rule:evenodd;}</style></defs><title>turkey</title><path class="cls-1" d="M6.84,15.31c-.62-.23-.43-1.38,1.17-2-2.09-1.64,1.64-2.68,1.57-2.68-1.26.09-4.53,1.37-2.49,2.45-2.43.6-1.46,2.29-1,2.51-1.23.4-2.41.45-2.41-.93-1.44-.39-1.83-1-1.53-2a2.82,2.82,0,0,1-1.06-2.26C.35,9.17,0,8.62.55,7.27-.32,6.12-.11,3.69.85,4c-.32-1.21.21-2.78,1-2.29,1-1.78,1.71-2.59,3.22-.27S8.74,7.77,9.34,9a13.18,13.18,0,0,1-.68-3,11.42,11.42,0,0,1,5.47.14A19.79,19.79,0,0,1,17.81,8l.24,1.27c.17.84.43-3.1-.48-3.79s-1.14-3.4.36-4a2.33,2.33,0,0,1,2.94,1.18c.35.3.47,2.09.18,3.49s-.24.94-.12,1.3a.74.74,0,0,1-.75-.9c.12-.65.52-1.4.37-1.76s-.71,0-.71,0a3.23,3.23,0,0,0,.34-1.4,9,9,0,0,0-.91,1.92s-.3.24.24,1.27,1.74,3.44,1.56,4.78c.28,1.16-.31,6.18-7.29,6.58-.06,1.05-.13,1.88.27,2.31a5.66,5.66,0,0,0,1.74.12c.36,0-.1.74-1.75.06,0,0,.47.34.85.64.54.42-.36.22-.54.11a2,2,0,0,1-.7-.59c-.89.55-1.9.08-1.32,0a5.54,5.54,0,0,0,1.34-.36,3.12,3.12,0,0,1-.29-1.15,12.13,12.13,0,0,1,0-1.38s-1.52,0-1.66-.23c.88-.53,6.36-3.2,5.6-6.94-.77,2.11-1.14,4.14-5.13,6.26a8,8,0,0,0-3.93,4.47c-.19.38-3.86-2.65-1.39-6.07Z" transform="translate(0)"/></svg>