<svg id="Layer_1" data-name="Layer 1" xmlns="http://www.w3.org/2000/svg" viewBox="0 0 240.73 128.11"><defs><style>.cls-1{fill:#65943f;}</style></defs><title>vegan</title><path class="cls-1" d="M71.08,16.05C53.6,42.44,62.16,66.45,62.41,67.39c26-41.28,39.84-38.91,39.84-38.91S65,60.65,60.84,77.22c27.39,4.33,31.25,11.5,54-16,20-24.24,28.29-57.43,28.29-57.43s-54.53-14.11-72,12.28Z"/><path class="cls-1" d="M46.92,74.4a2.38,2.38,0,0,0-2.21-2.21H39.25c-1,0-1.8.62-2.21,1.94,0,.07-.14.07-.14.27L37,74,23.49,114.27,9.88,74c-.48-.9-.83-1.8-2.21-1.8H2.28A2,2,0,0,0,0,74.4a2.31,2.31,0,0,0,.28,1.18c5,12.43,8.84,24,13.2,36.41l4.77,13.75a2,2,0,0,0,2.21,1.73h6.08c1.38,0,1.73-.69,2.21-1.8l1.17-3.24L37,102.73,44.43,82.2c1.59-4.49,2.49-7.6,2.49-7.81Zm41.94,53.07c2.28,0,2.28-1.38,2.28-2.76V121c0-2.49-.35-2.7-2.76-2.7H61.57V102.86h23a2.16,2.16,0,0,0,2.21-2.28v-4.7a2.16,2.16,0,0,0-2.21-2.28h-23V81.37H87.48c2.42,0,2.76-.21,2.76-2.69V74.88c0-1.38,0-2.7-2.28-2.7H54.59a2.22,2.22,0,0,0-2.35,2.21l.14,50.85a2.1,2.1,0,0,0,2.21,2.21Zm31.72-56.25A22.63,22.63,0,0,0,98,93.75v11.19c0,13.82,10.09,22.8,22.6,23.15a20.77,20.77,0,0,0,17.83-8,22.59,22.59,0,0,0,4-7.6,34,34,0,0,0,.76-4.84c.21-1.93.28-3.11.28-3.59,0-.9,0-1.8-.07-2.84s-.07-1.52-.07-2.56a1.92,1.92,0,0,0-2.14-2.21H122.79a2,2,0,0,0-2.21,2.21v4.29a2.32,2.32,0,0,0,2.21,2.21h11.89c0,.07-.14,1-.35,2.7a14,14,0,0,1-1,4c-2.42,5-7.39,7.4-12.71,7.4a13.53,13.53,0,0,1-9.6-3.94c-2.49-2.49-4-5.6-4-10.37V93.75A13.62,13.62,0,0,1,120.57,80.2c5.53,0,9.54,2.9,12.09,7.6l-.07-.07a2.14,2.14,0,0,0,2,1.31h5c1.87,0,2.76-1.31,2.14-2.76-3.87-9-11.61-15.06-21.14-15.06Zm73,54a4.35,4.35,0,0,0-.07-.83L175.78,74c-.48-.9-.76-1.8-2.14-1.8h-6.08c-1.38,0-1.73.76-2.21,1.8-1.8,4.35-17.62,51-17.62,51.27a2.28,2.28,0,0,0,2.28,2.21h4.77c1.66,0,1.8-.69,2.28-1.8l3.8-10.64,17-7.53,6.29,18.17c.48,1,.76,1.8,2.21,1.8h5a2,2,0,0,0,2.21-2.21ZM165,102.52l5.6-15.68c.76,2.14,1.17,3.59,1.66,5,.21.76.48,1.38.69,2.15s.76,2.14,1.59,4.35L165,102.52ZM240.73,74.4a2.29,2.29,0,0,0-2.28-2.21h-4.7a2.29,2.29,0,0,0-2.28,2.21v34.48l-23.7-35.66v.07a2,2,0,0,0-1.87-1.11H200.8a2.23,2.23,0,0,0-2.21,2.21l.14,50.85a2.11,2.11,0,0,0,2.07,2.21h4.77a2.29,2.29,0,0,0,2.28-2.21V90.84c8.5,12.57,15.69,23.22,24,35.58a2.08,2.08,0,0,0,1.94,1h4.7a2.29,2.29,0,0,0,2.28-2.21V74.4Z"/></svg>