<?xml version="1.0" encoding="utf-8"?>
<!-- Generator: Adobe Illustrator 22.0.1, SVG Export Plug-In . SVG Version: 6.00 Build 0)  -->
<svg version="1.1" id="Layer_1" xmlns="http://www.w3.org/2000/svg" xmlns:xlink="http://www.w3.org/1999/xlink" x="0px" y="0px"
	 viewBox="0 0 255.2 109.9" style="enable-background:new 0 0 255.2 109.9;" xml:space="preserve">
<style type="text/css">
	.st0{fill:#659331;}
</style>
<title>second-logo</title>
<g>
	<g id="Macro">
		<path class="st0" d="M0,50.8L9.2,0.1l21.1,40.5L51.8,0l8.6,50.8h-6.3L49,17.4L30.2,52.8L11.7,17.4L6.3,50.8H0z"/>
		<path class="st0" d="M103.5,37.2H80.1l-6.6,13.5h-6.8L92,0.4l24.7,50.3H110L103.5,37.2z M101.1,32.2L91.9,13l-9.4,19.2L101.1,32.2
			z"/>
		<path class="st0" d="M164.9,13.3c-2.1-1.8-4.6-3.4-7.2-4.5c-3-1.2-6.2-1.8-9.5-1.9c-12.7,0-22.1,8.9-22.1,20
			c0,13,12.1,19.6,22.2,19.6c3.5,0,7-0.8,10.2-2.2c2.3-1,4.5-2.4,6.4-4V47c-5,3.1-10.7,4.7-16.6,4.7c-16.4,0-28.5-10.8-28.5-24.7
			c0-14.3,12.3-25,28.8-25c5.8-0.1,11.4,1.6,16.2,4.7V13.3z"/>
		<path class="st0" d="M184.9,2.7c3.7,0,9.2,0.2,13.4,2.7c3.8,2.2,6.1,6.3,6,10.7c0,7.3-5.5,12.8-13.9,13.2l17.5,21.5h-7.4l-16.8-21
			h-1.6v21h-6.1v-48L184.9,2.7z M182.2,25h3.9c7.6,0,12.1-3.2,12.1-8.8c0.2-3-1.6-5.8-4.4-7.1c-2.5-1.1-5.2-1.5-7.9-1.4h-3.7
			L182.2,25z"/>
	</g>
	<path class="st0" d="M144.2,64.3h3.6v2.2c1.1-1.7,3.1-2.7,5.1-2.7c2.4-0.1,4.6,1.2,5.6,3.4c1.3-2.2,3.7-3.5,6.2-3.3
		c6.1,0,6.8,5.2,6.8,8.1V85H168V72.4c0-2.3-0.3-5.4-3.7-5.4c-4.1,0-4.6,4-4.6,6.5V85h-3.6V72.7c0-1.4,0.1-5.8-3.8-5.8
		c-4.1,0-4.6,4.2-4.6,6.8V85h-3.6L144.2,64.3z"/>
	<path class="st0" d="M197.9,79.7c-0.7,1.3-1.5,2.4-2.6,3.3c-1.9,1.7-4.4,2.6-6.9,2.6c-5,0-10.2-3.2-10.2-10.8c0-6.2,3.8-11,10.1-11
		c3.1-0.1,6,1.3,7.9,3.8c1.4,2.3,2.1,5.1,2,7.8h-16.2c0.1,4.3,3,7.1,6.6,7.1c1.6,0,3.1-0.5,4.2-1.5c0.9-0.8,1.6-1.8,2.1-2.8
		L197.9,79.7z M194.3,72.4c-0.4-3.1-3-5.4-6.1-5.4c-3.1,0.1-5.7,2.4-6.1,5.4H194.3z"/>
	<path class="st0" d="M220.4,64.3h3.6V85h-3.6v-2.9c-1.7,2.2-4.3,3.5-7.1,3.5c-5.2,0-10.1-3.7-10.1-11s4.8-10.8,10.1-10.8
		c2.8-0.1,5.4,1.2,7.1,3.4V64.3z M206.9,74.6c0,4.4,2.5,7.8,6.8,7.8s6.9-3.7,6.9-7.8c0-5.3-3.7-7.7-6.9-7.7
		C210.1,67,206.9,69.6,206.9,74.6z"/>
	<path class="st0" d="M251,69.1c-0.4-1.2-1.6-2.1-2.9-2.1c-1.3-0.1-2.4,0.8-2.5,2.1c0,0.1,0,0.2,0,0.3c0,1.5,1,2,3.4,3
		c3,1.2,4.4,2.2,5.2,3.2c0.8,0.9,1.2,2.1,1.1,3.3c0,4.3-3.1,6.8-7.1,6.8c-3.3,0.1-6.3-2.1-7.2-5.3l3.1-1.3c0.4,1.1,1.6,3.4,4.2,3.4
		c1.8,0.1,3.3-1.3,3.4-3c0-0.1,0-0.2,0-0.3c0-2-1.4-2.6-3.4-3.4c-2.5-1.1-4.1-1.9-5.1-3.1c-0.7-0.9-1-2-0.9-3.1
		c0-3.7,2.6-5.8,6.1-5.8c2.5-0.1,4.8,1.4,5.7,3.7L251,69.1z"/>
	<path class="st0" d="M235.1,50c1.9-2.4-8.6-2.7-6.1-0.2c2.1,2.1,2.3,21.6,1.4,37.2c-0.2,6-1.1,12-2.6,17.8c0,0-0.1,5.2,4.9,5.2
		s5.1-5.2,5.1-5.2c-1.6-6.5-2.7-13-3.3-19.6C233,69.1,233.3,52.3,235.1,50z"/>
	<g id="Good_O">
		<path class="st0" d="M213.3,26.6c0-14.6,8.4-25.3,18.7-25.3s18.8,10.7,18.8,25.3s-8.3,25.3-18.8,25.3S213.3,41.1,213.3,26.6z
			 M217.4,26.6c0,11.2,6.5,20.1,14.6,20.1s14.6-8.9,14.6-20.1S240.1,6.5,232,6.5S217.4,15.4,217.4,26.6z"/>
	</g>
</g>
</svg>
