<svg id="Layer_1" data-name="Layer 1" xmlns="http://www.w3.org/2000/svg" viewBox="0 0 255.26 109.94"><defs><style>.cls-1{fill:#fff;}</style></defs><title>logo-white</title><g id="Macro"><path class="cls-1" d="M0,50.76,9.16.07,30.3,40.61,51.84,0l8.59,50.76H54.15L49,17.35,30.21,52.78,11.72,17.35,6.27,50.76Z"/><path class="cls-1" d="M103.52,37.23H80.08l-6.6,13.54H66.7L92,.43l24.68,50.33H110Zm-2.39-5L91.88,13,82.47,32.19Z"/><path class="cls-1" d="M164.85,13.32a27.38,27.38,0,0,0-7.18-4.46A26.36,26.36,0,0,0,148.18,7c-12.71,0-22.12,8.93-22.12,20,0,13,12.13,19.59,22.21,19.59a25.6,25.6,0,0,0,10.24-2.23,25.09,25.09,0,0,0,6.36-4V47a31.69,31.69,0,0,1-16.59,4.68c-16.35,0-28.48-10.8-28.48-24.7,0-14.33,12.3-25,28.81-25A28.65,28.65,0,0,1,164.85,6.7Z"/><path class="cls-1" d="M184.92,2.74c3.71,0,9.25.22,13.37,2.66a12.13,12.13,0,0,1,6,10.66c0,7.34-5.53,12.75-13.87,13.25l17.5,21.46h-7.43l-16.76-21h-1.57v21h-6.11v-48ZM182.19,25h3.88c7.59,0,12.13-3.17,12.13-8.78a7.28,7.28,0,0,0-4.37-7.06,17.7,17.7,0,0,0-7.92-1.37H182.2Z"/></g><path class="cls-1" d="M144.2,64.29h3.6v2.2a6,6,0,0,1,5.15-2.7,6.21,6.21,0,0,1,5.65,3.35,6.93,6.93,0,0,1,6.25-3.35c6.15,0,6.75,5.15,6.75,8.1V85H168V72.44c0-2.35-.3-5.45-3.7-5.45-4.15,0-4.6,4-4.6,6.5V85h-3.6V72.74c0-1.45.05-5.75-3.75-5.75-4.1,0-4.55,4.25-4.55,6.75V85h-3.6Z"/><path class="cls-1" d="M197.85,79.74a12.42,12.42,0,0,1-2.55,3.35,10.07,10.07,0,0,1-6.9,2.55c-5,0-10.25-3.15-10.25-10.85,0-6.2,3.8-11,10.05-11a9.28,9.28,0,0,1,7.85,3.8,13.93,13.93,0,0,1,2,7.8h-16.2c.05,4.3,3,7.05,6.6,7.05a6.31,6.31,0,0,0,4.25-1.5,8.27,8.27,0,0,0,2.15-2.85Zm-3.55-7.35a6.21,6.21,0,0,0-6.1-5.4,6.31,6.31,0,0,0-6.1,5.4Z"/><path class="cls-1" d="M220.4,64.29H224V85h-3.6V82.1a8.75,8.75,0,0,1-7.1,3.5c-5.25,0-10.1-3.7-10.1-11s4.8-10.85,10.1-10.85a8.59,8.59,0,0,1,7.1,3.45ZM206.9,74.64c0,4.45,2.5,7.8,6.8,7.8s6.9-3.65,6.9-7.75c0-5.35-3.7-7.7-6.9-7.7C210.15,67,206.9,69.59,206.9,74.64Z"/><path class="cls-1" d="M251,69.09a3.18,3.18,0,0,0-2.9-2.1,2.29,2.29,0,0,0-2.5,2.35c0,1.5,1,2,3.35,3,3,1.25,4.4,2.2,5.2,3.2a4.91,4.91,0,0,1,1.1,3.35c0,4.35-3.15,6.8-7.15,6.8a7.42,7.42,0,0,1-7.25-5.3l3.1-1.3c.4,1.1,1.6,3.4,4.2,3.4a3.22,3.22,0,0,0,3.4-3q0-.13,0-.27c0-2-1.4-2.6-3.35-3.45-2.5-1.1-4.1-1.9-5.05-3.05a4.51,4.51,0,0,1-.95-3.05c0-3.65,2.55-5.8,6.05-5.8a6,6,0,0,1,5.7,3.75Z"/><path class="cls-1" d="M235.1,50c1.91-2.41-8.57-2.66-6.11-.21,2.15,2.14,2.29,21.58,1.39,37.16a87.89,87.89,0,0,1-2.56,17.8s-.1,5.19,4.92,5.19,5.06-5.19,5.06-5.19a128.8,128.8,0,0,1-3.3-19.64C233,69.06,233.31,52.27,235.1,50Z"/><g id="Good_O" data-name="Good O"><path class="cls-1" d="M213.3,26.6c0-14.6,8.37-25.27,18.7-25.27S250.8,12,250.8,26.6,242.48,51.88,232,51.88,213.3,41.11,213.3,26.6Zm4.11,0c0,11.21,6.54,20.14,14.64,20.14s14.64-8.94,14.64-20.14S240.15,6.46,232,6.46,217.41,15.4,217.41,26.6Z"/></g></svg>