<svg id="Capa_1" data-name="Capa 1" xmlns="http://www.w3.org/2000/svg" viewBox="0 0 259.42 265.68"><defs><style>.cls-1{fill:#f6f7f5;stroke:#fff;stroke-linecap:round;stroke-linejoin:round;stroke-width:2px;}</style></defs><title>basket</title><polygon class="cls-1" points="225.32 264.68 39.61 264.68 37.01 255.17 227.55 255.17 225.32 264.68"/><polygon class="cls-1" points="235.28 222.15 27.98 222.15 25.38 212.65 237.51 212.65 235.28 222.15"/><polygon class="cls-1" points="245.25 179.63 16.36 179.63 13.76 170.12 247.47 170.12 245.25 179.63"/><polygon class="cls-1" points="39.61 264.68 1 123.44 12.39 123.44 47.83 264.68 39.61 264.68"/><polygon class="cls-1" points="69.19 264.68 42 123.44 53.39 123.44 77.41 264.68 69.19 264.68"/><polygon class="cls-1" points="98.78 264.68 83.01 123.44 94.4 123.44 106.99 264.68 98.78 264.68"/><polygon class="cls-1" points="128.35 264.68 124.01 123.44 135.41 123.44 136.57 264.68 128.35 264.68"/><polygon class="cls-1" points="157.94 264.68 165.01 123.44 176.4 123.44 166.15 264.68 157.94 264.68"/><polygon class="cls-1" points="187.53 264.68 206.02 123.44 217.41 123.44 195.74 264.68 187.53 264.68"/><polygon class="cls-1" points="217.1 264.68 247.03 123.44 258.42 123.44 225.32 264.68 217.1 264.68"/><path class="cls-1" d="M335.44,177.29H89.76a5.87,5.87,0,0,0-5.86,5.86v26.9a5.87,5.87,0,0,0,5.86,5.87H335.44a5.87,5.87,0,0,0,5.86-5.87v-26.9A5.87,5.87,0,0,0,335.44,177.29ZM144,205.59a10.1,10.1,0,1,1,10.1-10.11A10.11,10.11,0,0,1,144,205.59Zm130.09,0a10.1,10.1,0,1,1,10.1-10.11A10.11,10.11,0,0,1,274.11,205.59Z" transform="translate(-82.89 -79.76)"/><path class="cls-1" d="M154.2,195a8.25,8.25,0,0,1-11,3.94h0a8.25,8.25,0,0,1-3.94-11L187.6,85.49a8.25,8.25,0,0,1,11-3.94h0a8.25,8.25,0,0,1,3.94,11Z" transform="translate(-82.89 -79.76)"/><path class="cls-1" d="M277.3,185.74A8.25,8.25,0,0,1,274.09,197h0a8.25,8.25,0,0,1-11.22-3.21l-54.94-99a8.25,8.25,0,0,1,3.21-11.22h0a8.25,8.25,0,0,1,11.22,3.21Z" transform="translate(-82.89 -79.76)"/></svg>