<svg id="Layer_1" data-name="Layer 1" xmlns="http://www.w3.org/2000/svg" viewBox="0 0 300 264.29"><defs><style>.cls-1{fill:#f8f9f7;}</style></defs><title>basket-new</title><path id="_Compound_Path_" data-name="&lt;Compound Path&gt;" class="cls-1" d="M252.38,92.44l-45-83.65C204,2.49,194,1.26,185.16,6s-13.32,13.75-9.93,20l35.72,66.36H90L127.42,23c3.39-6.3-1.06-15.27-9.93-20S98.68-.63,95.29,5.66L50.23,89.38a9.42,9.42,0,0,0-1,3.06H0v29.69H17.51l31.7,137.28v4.89H250.78v-2.72l.52.12L283,122.13h17V92.44ZM111.33,234.61H74L63.4,187.94h47.92Zm0-65.81H59L48,122.17h.45v0h62.9Zm59.77,65.81H130.47V187.94h40.63Zm0-65.81H130.47V122.13h40.63ZM227,234.61H190.23V187.94h47.4Zm15-65.81H190.23V122.13H252.6Z"/></svg>