<svg id="Layer_1" data-name="Layer 1" xmlns="http://www.w3.org/2000/svg" viewBox="0 0 1400 1224.99"><defs><style>.cls-1{fill:#fcfcfc;}</style></defs><title>better-cart</title><circle class="cls-1" cx="1093.61" cy="1137.49" r="87.5"/><path class="cls-1" d="M757.68,1337.5a87.5,87.5,0,1,1-87.5,87.5A87.5,87.5,0,0,1,757.68,1337.5Z" transform="translate(-200 -287.5)"/><path class="cls-1" d="M1590.72,479.34a43.7,43.7,0,0,0-34.48-16.83H529.35L494,320.68a43.75,43.75,0,0,0-42.45-33.18H243.75a43.75,43.75,0,1,0,0,87.5H417.39L638,1260.57a43.75,43.75,0,0,0,42.46,33.18h711a43.75,43.75,0,1,0,0-87.5H714.64L681.94,1075H1425a43.76,43.76,0,0,0,42.45-33.13l131.26-525A43.75,43.75,0,0,0,1590.72,479.34ZM1390.82,987.5H660.63L551.24,550h949Z" transform="translate(-200 -287.5)"/></svg>