<?xml version="1.0" encoding="UTF-8"?>
<svg xmlns="http://www.w3.org/2000/svg" id="Layer_1" viewBox="0 0 357.94 357.94">
  <defs>
    <style>.cls-1{fill:#386189;}.cls-1,.cls-2,.cls-3{stroke:#fcfcfc;stroke-miterlimit:10;stroke-width:0.5px;}.cls-2{fill:#65943f;}.cls-3{fill:#9c4b46;}.cls-4{font-size:26px;fill:#fff;font-family:NimbusSan-Reg, Nimbus Sans;}.cls-5{letter-spacing:0em;}.cls-6{letter-spacing:0em;}.cls-7{letter-spacing:-0.02em;}.cls-8{letter-spacing:0.01em;}.cls-9{letter-spacing:-0.01em;}.cls-10{letter-spacing:0.01em;}.cls-11{letter-spacing:0.01em;}.cls-12{letter-spacing:-0.05em;}.cls-13{letter-spacing:-0.06em;}</style>
  </defs>
  <title>roasted-red-pepper-chicken</title>
  <path class="cls-1" d="M287.69,403.12l178.61,6.24A178.85,178.85,0,0,1,293.92,581.73Z" transform="translate(-108.71 -224.15)"></path>
  <path class="cls-2" d="M287.69,403.12l-3.12-178.69A178.72,178.72,0,0,1,466.38,400c0,2.86,0,6.5-.08,9.36Z" transform="translate(-108.71 -224.15)"></path>
  <path class="cls-3" d="M287.69,403.12l6.24,178.61a178.72,178.72,0,0,1-12.47-357.22c1.87-.07,1.24,0,3.12-.08Z" transform="translate(-108.71 -224.15)"></path>
  <text class="cls-4" transform="translate(36.29 176.44)">
    <tspan class="cls-5">P</tspan>
    <tspan class="cls-6" x="15.34" y="0">R</tspan>
    <tspan class="cls-7" x="31.98" y="0">O</tspan>
    <tspan class="cls-8" x="50.86" y="0">T</tspan>
    <tspan x="64.82" y="0">EIN</tspan>
  </text>
  <text class="cls-4" transform="translate(66.29 199.44)">51%</text>
  <text class="cls-4" transform="translate(204.29 109.94)">
    <tspan class="cls-9">C</tspan>
    <tspan x="17.5" y="0">A</tspan>
    <tspan class="cls-10" x="33.44" y="0">R</tspan>
    <tspan class="cls-11" x="50.31" y="0">B</tspan>
    <tspan x="67.21" y="0">S</tspan>
  </text>
  <text class="cls-4" transform="translate(229.29 132.94)">26%</text>
  <text class="cls-4" transform="translate(211.79 246.19)">
    <tspan class="cls-12">F</tspan>
    <tspan class="cls-13" x="13.08" y="0">A</tspan>
    <tspan class="cls-6" x="27.38" y="0">T</tspan>
    <tspan x="41.21" y="0">S</tspan>
  </text>
  <text class="cls-4" transform="translate(223.79 269.19)">24%</text>
</svg>
