<?xml version="1.0" encoding="utf-8"?>
<!-- Generator: Adobe Illustrator 21.1.0, SVG Export Plug-In . SVG Version: 6.00 Build 0)  -->
<svg version="1.1" id="Layer_1" xmlns="http://www.w3.org/2000/svg" xmlns:xlink="http://www.w3.org/1999/xlink" x="0px" y="0px"
	 viewBox="0 0 108.5 108.5" style="enable-background:new 0 0 108.5 108.5;" xml:space="preserve">
<style type="text/css">
	.st0{fill:#FFFFFF;}
</style>
<title>instagram</title>
<path class="st0" d="M54.2,78c-1.2,0-2.1-0.9-2.1-2.1c0-1.2,0.9-2.1,2.1-2.1l0,0c10.8,0,19.6-8.8,19.6-19.6
	c0-10.8-8.8-19.6-19.6-19.6c-10.8,0-19.6,8.8-19.6,19.5c0,1.2-0.9,2.1-2.1,2.1c-1.2,0-2.1-0.9-2.1-2.1c0-13.1,10.6-23.7,23.7-23.7
	S78,41.2,78,54.3C78,67.4,67.4,78,54.2,78z M29.5,34.7C18.7,48.3,21,68.1,34.7,79s33.5,8.5,44.3-5.1c9.1-11.5,9.1-27.7,0-39.1h27.5
	c1.2,0,2.1-0.9,2.1-2.1V9.1c0-5-4.1-9.1-9.1-9.1H9.1C4.1,0,0,4.1,0,9.1v23.5c0,1.2,0.9,2.1,2.1,2.1l0,0H29.5z M75,30.5h29.4V9.1
	c0-2.7-2.2-4.9-4.9-4.9H9.1c-2.7,0-4.9,2.2-4.9,4.9v21.4h29.4C45.4,20.1,63.1,20.1,75,30.5z M54.2,40C46.4,40,40,46.4,40,54.2
	s6.4,14.2,14.2,14.2c7.8,0,14.2-6.3,14.2-14.2c0-1.2-0.9-2.1-2.1-2.1c-1.2,0-2.1,0.9-2.1,2.1l0,0c0,5.5-4.5,10-10,10s-10-4.5-10-10
	s4.5-10,10-10c1.2,0,2.1-0.9,2.1-2.1S55.4,40.1,54.2,40L54.2,40z M54.2,81.5c15.1,0,27.3-12.2,27.3-27.3S69.3,26.9,54.2,26.9
	S26.9,39.1,26.9,54.2c0,0,0,0,0,0C26.9,69.3,39.2,81.6,54.2,81.5L54.2,81.5z M95.7,11.3c0.6,0,1,0.4,1,1v10.1c0,0.6-0.4,1-1,1H85.7
	c-0.6,0-1-0.4-1-1V12.3c0-0.6,0.4-1,1-1L95.7,11.3z M85.7,7.1h10.1c2.9,0,5.2,2.3,5.2,5.2v10.1c0,2.9-2.3,5.2-5.2,5.2H85.7
	c-2.9,0-5.2-2.3-5.2-5.2V12.3C80.5,9.4,82.8,7.1,85.7,7.1z M104.3,40v59.4c0,2.7-2.2,4.9-4.9,4.9H9.1c-2.7,0-4.9-2.2-4.9-4.9V40
	c0-1.2-0.9-2.1-2.1-2.1S0,38.8,0,40v59.4c0,5,4.1,9.1,9.1,9.1h90.3c5,0,9.1-4.1,9.1-9.1V40c0-1.2-0.9-2.1-2.1-2.1
	C105.3,37.9,104.3,38.8,104.3,40L104.3,40z"/>
</svg>
