<svg id="Layer_1" data-name="Layer 1" xmlns="http://www.w3.org/2000/svg" xmlns:xlink="http://www.w3.org/1999/xlink" viewBox="0 0 105.58 43.72"><defs><style>.cls-1{fill:none;}.cls-2{clip-path:url(#clip-path);}.cls-3{fill:#659331;}</style><clipPath id="clip-path" transform="translate(-3.23 -4.66)"><path class="cls-1" d="M0,40.24l48.63.91c.59-.93,6.38-9,29.2-4.95,19.78,3.48,28.36-3.21,28.45-3.28L106.41.48,0,0S0,40.18,0,40.24Z"/></clipPath></defs><title>logo</title><g class="cls-2"><path class="cls-3" d="M28.46,22.91h4.19v1.92h.06A3.53,3.53,0,0,1,33.3,24a4.24,4.24,0,0,1,.9-.73,5.17,5.17,0,0,1,1.19-.52,5,5,0,0,1,1.46-.2,5.53,5.53,0,0,1,2.64.61,3.87,3.87,0,0,1,1.73,1.92,4.72,4.72,0,0,1,1.83-2,5.51,5.51,0,0,1,2.65-.58,5.41,5.41,0,0,1,2.4.48,3.93,3.93,0,0,1,1.54,1.31,5.53,5.53,0,0,1,.82,2,11.15,11.15,0,0,1,.25,2.4v8.36H46.34V28.82a3.29,3.29,0,0,0-.42-1.7,1.6,1.6,0,0,0-1.5-.71,2.89,2.89,0,0,0-1.27.25,2.09,2.09,0,0,0-.82.68,2.85,2.85,0,0,0-.44,1,5.57,5.57,0,0,0-.13,1.22v7.48H37.4V29.57q0-.38,0-.93a3.73,3.73,0,0,0-.2-1,2,2,0,0,0-.57-.84,1.68,1.68,0,0,0-1.15-.35,2.69,2.69,0,0,0-1.37.31,2.09,2.09,0,0,0-.8.82,3.33,3.33,0,0,0-.36,1.15A9.89,9.89,0,0,0,32.83,30v7H28.46ZM66.61,34.61A7,7,0,0,1,64,36.68a7.94,7.94,0,0,1-3.32.73,8.92,8.92,0,0,1-3.07-.52,7.39,7.39,0,0,1-2.5-1.5A7,7,0,0,1,53.39,33a8,8,0,0,1,0-6.11,7,7,0,0,1,1.67-2.34,7.39,7.39,0,0,1,2.5-1.5,8.92,8.92,0,0,1,3.07-.52,7,7,0,0,1,2.75.52,5.73,5.73,0,0,1,2.1,1.5,6.84,6.84,0,0,1,1.32,2.34A9.46,9.46,0,0,1,67.28,30v1.37H57.15a3.46,3.46,0,0,0,1.14,2,3.21,3.21,0,0,0,2.15.74,3.28,3.28,0,0,0,1.82-.48,4.89,4.89,0,0,0,1.3-1.24Zm-3.7-6.23a2.53,2.53,0,0,0-.73-1.89,2.59,2.59,0,0,0-2-.79,3.28,3.28,0,0,0-1.28.23,3.22,3.22,0,0,0-.95.6,2.62,2.62,0,0,0-.61.84,2.77,2.77,0,0,0-.25,1Zm15.32,6.9h-.06a4.11,4.11,0,0,1-1.94,1.63,6.66,6.66,0,0,1-2.55.5,6.57,6.57,0,0,1-1.91-.28,4.81,4.81,0,0,1-1.62-.83,4,4,0,0,1-1.11-1.37A4.17,4.17,0,0,1,68.65,33,4.34,4.34,0,0,1,69.1,31a4,4,0,0,1,1.22-1.4,6.08,6.08,0,0,1,1.76-.86,12.88,12.88,0,0,1,2.05-.45,19.7,19.7,0,0,1,2.13-.17l2,0a2.27,2.27,0,0,0-.83-1.85,3,3,0,0,0-2-.68,4.28,4.28,0,0,0-2,.45,5.37,5.37,0,0,0-1.59,1.24l-2.33-2.39a8,8,0,0,1,2.85-1.7,10.2,10.2,0,0,1,3.38-.57,8.83,8.83,0,0,1,3.16.48,4.6,4.6,0,0,1,2,1.41,5.44,5.44,0,0,1,1,2.29,15,15,0,0,1,.29,3.13v7.19h-4Zm-1.08-4.43q-.5,0-1.24,0a6.28,6.28,0,0,0-1.43.25,3.18,3.18,0,0,0-1.16.61,1.41,1.41,0,0,0-.48,1.14,1.25,1.25,0,0,0,.67,1.16,2.8,2.8,0,0,0,1.4.38,4.39,4.39,0,0,0,1.24-.17,3.69,3.69,0,0,0,1.06-.49A2.4,2.4,0,0,0,78,33a2.35,2.35,0,0,0,.28-1.16v-.93ZM84.46,15h4.37v22H84.46Zm14.94,12a3.09,3.09,0,0,0-2.53-1.19,2.38,2.38,0,0,0-1.08.26.93.93,0,0,0-.52.9.81.81,0,0,0,.54.77,7.1,7.1,0,0,0,1.37.44l1.78.41a6.69,6.69,0,0,1,1.78.68,4,4,0,0,1,1.37,1.27,3.78,3.78,0,0,1,.54,2.14A4,4,0,0,1,102,35a4.58,4.58,0,0,1-1.53,1.43,6.57,6.57,0,0,1-2.1.76,12.46,12.46,0,0,1-2.3.22,11.14,11.14,0,0,1-3-.42,5.6,5.6,0,0,1-2.56-1.5l2.65-2.94a4.39,4.39,0,0,0,1.35,1.15,3.65,3.65,0,0,0,1.73.39,4.05,4.05,0,0,0,1.37-.22.81.81,0,0,0,.61-.8.89.89,0,0,0-.54-.83,5.93,5.93,0,0,0-1.37-.47l-1.78-.41a7.34,7.34,0,0,1-1.78-.66,3.71,3.71,0,0,1-1.37-1.24,3.77,3.77,0,0,1-.54-2.14,4.31,4.31,0,0,1,.51-2.15,4.48,4.48,0,0,1,1.34-1.49,5.8,5.8,0,0,1,1.91-.86,8.75,8.75,0,0,1,2.18-.28,10.25,10.25,0,0,1,2.82.41,5.24,5.24,0,0,1,2.42,1.46ZM3.23,5H7.42V6.93h.06a3.53,3.53,0,0,1,.58-.82A4.24,4.24,0,0,1,9,5.39a5.17,5.17,0,0,1,1.19-.52,5,5,0,0,1,1.46-.2,5.53,5.53,0,0,1,2.64.61A3.87,3.87,0,0,1,16,7.19a4.72,4.72,0,0,1,1.83-2,5.51,5.51,0,0,1,2.65-.58,5.41,5.41,0,0,1,2.4.48,3.93,3.93,0,0,1,1.54,1.31,5.53,5.53,0,0,1,.82,2,11.15,11.15,0,0,1,.25,2.4v8.36H21.11V10.92a3.29,3.29,0,0,0-.42-1.7,1.6,1.6,0,0,0-1.5-.71,2.89,2.89,0,0,0-1.27.25,2.09,2.09,0,0,0-.82.68,2.85,2.85,0,0,0-.44,1,5.57,5.57,0,0,0-.13,1.22v7.48H12.17V11.68q0-.38,0-.93a3.73,3.73,0,0,0-.2-1,2,2,0,0,0-.57-.84,1.68,1.68,0,0,0-1.15-.35,2.69,2.69,0,0,0-1.37.31,2.09,2.09,0,0,0-.8.82,3.33,3.33,0,0,0-.36,1.15,9.89,9.89,0,0,0-.09,1.34v7H3.23ZM36.86,17.38H36.8A4.11,4.11,0,0,1,34.87,19a6.66,6.66,0,0,1-2.55.5,6.57,6.57,0,0,1-1.91-.28,4.81,4.81,0,0,1-1.62-.83A4,4,0,0,1,27.69,17a4.18,4.18,0,0,1-.41-1.89,4.34,4.34,0,0,1,.45-2.07A4,4,0,0,1,29,11.68a6.08,6.08,0,0,1,1.76-.86,12.87,12.87,0,0,1,2.05-.45,19.7,19.7,0,0,1,2.13-.17l2,0A2.27,2.27,0,0,0,36,8.31a3,3,0,0,0-2-.68,4.28,4.28,0,0,0-2,.45,5.37,5.37,0,0,0-1.59,1.24L28.18,6.93A8,8,0,0,1,31,5.23a10.2,10.2,0,0,1,3.38-.57,8.83,8.83,0,0,1,3.16.48,4.6,4.6,0,0,1,2,1.41,5.44,5.44,0,0,1,1,2.29A15,15,0,0,1,40.88,12v7.19h-4ZM35.78,13q-.5,0-1.24,0a6.29,6.29,0,0,0-1.43.25,3.18,3.18,0,0,0-1.16.61A1.41,1.41,0,0,0,31.47,15a1.25,1.25,0,0,0,.67,1.16,2.8,2.8,0,0,0,1.4.38,4.39,4.39,0,0,0,1.24-.17,3.69,3.69,0,0,0,1.06-.49,2.4,2.4,0,0,0,.74-.82,2.35,2.35,0,0,0,.28-1.16V13ZM52.61,9.58a2.45,2.45,0,0,0-.9-.77,2.65,2.65,0,0,0-1.25-.31,3.34,3.34,0,0,0-2.58,1A3.66,3.66,0,0,0,47,12.08a3.66,3.66,0,0,0,.92,2.59,3.34,3.34,0,0,0,2.58,1,2.35,2.35,0,0,0,1.25-.32,3.82,3.82,0,0,0,.9-.76l2.88,3a5.57,5.57,0,0,1-2.4,1.47,9,9,0,0,1-2.64.42A8.92,8.92,0,0,1,47.39,19a7.39,7.39,0,0,1-2.5-1.5,7,7,0,0,1-1.67-2.34,7.41,7.41,0,0,1-.61-3.06A7.42,7.42,0,0,1,43.21,9a7,7,0,0,1,1.67-2.34,7.39,7.39,0,0,1,2.5-1.5,8.92,8.92,0,0,1,3.07-.52,9,9,0,0,1,2.64.42,5.58,5.58,0,0,1,2.4,1.47ZM56.49,5h4.37V7.28h.06a5.37,5.37,0,0,1,1.66-2A4.19,4.19,0,0,1,65,4.66l.76,0a3.78,3.78,0,0,1,.7.12v4a6.66,6.66,0,0,0-.92-.22,6,6,0,0,0-.95-.07,4.64,4.64,0,0,0-2,.35,2.63,2.63,0,0,0-1.12,1,3.71,3.71,0,0,0-.51,1.5,14.59,14.59,0,0,0-.12,1.92v5.91H56.49Zm10.22,7.08A7.41,7.41,0,0,1,67.32,9,7,7,0,0,1,69,6.68a7.39,7.39,0,0,1,2.5-1.5,9.26,9.26,0,0,1,6.14,0,7.4,7.4,0,0,1,2.5,1.5A7,7,0,0,1,81.82,9a7.42,7.42,0,0,1,.61,3.06,7.41,7.41,0,0,1-.61,3.06,7,7,0,0,1-1.67,2.34,7.39,7.39,0,0,1-2.5,1.5,9.26,9.26,0,0,1-6.14,0,7.39,7.39,0,0,1-2.5-1.5,7,7,0,0,1-1.67-2.34A7.41,7.41,0,0,1,66.71,12.08Zm4.37,0A3.66,3.66,0,0,0,72,14.68a3.85,3.85,0,0,0,5.15,0,3.66,3.66,0,0,0,.92-2.59,3.66,3.66,0,0,0-.92-2.59,3.85,3.85,0,0,0-5.15,0A3.66,3.66,0,0,0,71.07,12.08Z" transform="translate(-3.23 -4.66)"/></g><path class="cls-3" d="M107.35,34.24a20.87,20.87,0,0,1-7,3.2c-4.41,1.26-12,2.35-22.79.44C62.15,35.17,55,38.1,52,40.24H24.59c12.37,13,21.69,7.61,27.33,3l.08,0h0a4.3,4.3,0,0,1,.45-.49l.63-.54a12.82,12.82,0,0,1,3.69-1.88c6.16-2.09,14.48-1.29,20.38-.26,11.37,2,19.32.81,24-.54A22.28,22.28,0,0,0,108.81,36Z" transform="translate(-3.23 -4.66)"/></svg>