<svg id="Capa_1" data-name="Capa 1" xmlns="http://www.w3.org/2000/svg" viewBox="0 0 512 359.9"><defs><style>.cls-1{fill:#65943f;}</style></defs><title>delivery-truck-green</title><path class="cls-1" d="M486.7,247.1H239.8a7.34,7.34,0,0,1-7.3-7.3V21.9A21.89,21.89,0,0,1,254.4,0H472.1A21.89,21.89,0,0,1,494,21.9V239.7A7.3,7.3,0,0,1,486.7,247.1Zm-123,21.8a45.5,45.5,0,1,1-45.5,45.5A45.54,45.54,0,0,1,363.7,268.9Zm0,68.2A22.7,22.7,0,1,0,341,314.4,22.68,22.68,0,0,0,363.7,337.1ZM423,305.7h81.7a7.34,7.34,0,0,0,7.3-7.3V276.2a7.34,7.34,0,0,0-7.3-7.3H402.8A60.11,60.11,0,0,1,423,305.7ZM125.8,268.9a45.5,45.5,0,1,1-45.5,45.5A45.54,45.54,0,0,1,125.8,268.9Zm0,68.2a22.7,22.7,0,1,0-22.7-22.7A22.68,22.68,0,0,0,125.8,337.1ZM7.3,268.9H25.1V169.6a58.59,58.59,0,0,1,10-32.7L79.6,71A58.4,58.4,0,0,1,128,45.3h69a14.55,14.55,0,0,1,14.6,14.6v209H324.5a59.84,59.84,0,0,0-20.2,36.8H185.2a60,60,0,0,0-118.8,0H7.3A7.34,7.34,0,0,1,0,298.4V276.2A7.34,7.34,0,0,1,7.3,268.9ZM80.1,150.1h91a7.34,7.34,0,0,0,7.3-7.3V92.3a7.34,7.34,0,0,0-7.3-7.3H115.6a7.48,7.48,0,0,0-6,3.1L74,138.6A7.37,7.37,0,0,0,80.1,150.1Z"/></svg>