<?xml version="1.0" encoding="utf-8"?>
<!-- Generator: Adobe Illustrator 22.0.1, SVG Export Plug-In . SVG Version: 6.00 Build 0)  -->
<svg version="1.1" id="Capa_1" xmlns="http://www.w3.org/2000/svg" xmlns:xlink="http://www.w3.org/1999/xlink" x="0px" y="0px"
	 viewBox="0 0 512 359.8" style="enable-background:new 0 0 512 359.8;" xml:space="preserve">
<style type="text/css">
	.st0{fill:#FFFFFF;}
</style>
<g>
	<path class="st0" d="M486.7,247.1H239.8c-4,0-7.3-3.3-7.3-7.3V21.9c0-12.1,9.8-21.9,21.9-21.9l217.7,0C484.2,0,494,9.8,494,21.9
		v217.8C494,243.8,490.8,247.1,486.7,247.1z M363.7,268.9c25.1,0,45.5,20.4,45.5,45.5c0,25.1-20.4,45.5-45.5,45.5
		c-25.1,0-45.5-20.4-45.5-45.5C318.2,289.3,338.6,268.9,363.7,268.9z M363.7,337.1c12.6,0,22.7-10.2,22.7-22.7
		c0-12.6-10.2-22.7-22.7-22.7c-12.6,0-22.7,10.2-22.7,22.7C340.9,326.9,351.1,337.1,363.7,337.1z M423,305.7h81.7
		c4,0,7.3-3.3,7.3-7.3v-22.2c0-4-3.3-7.3-7.3-7.3H402.8C413.5,278.2,420.9,291.1,423,305.7z M125.8,268.9
		c25.1,0,45.5,20.4,45.5,45.5c0,25.1-20.4,45.5-45.5,45.5c-25.1,0-45.5-20.4-45.5-45.5C80.4,289.3,100.7,268.9,125.8,268.9z
		 M125.8,337.1c12.6,0,22.7-10.2,22.7-22.7c0-12.6-10.2-22.7-22.7-22.7c-12.6,0-22.7,10.2-22.7,22.7
		C103.1,326.9,113.3,337.1,125.8,337.1z M7.3,268.9h17.8v-99.3c0-11.7,3.5-23,10-32.7l44.5-65.9c10.9-16.1,29-25.7,48.4-25.7h69
		c8.1,0,14.6,6.5,14.6,14.6v209h112.9c-10.7,9.2-18.1,22.2-20.2,36.8H185.2c-4.2-29-29.2-51.4-59.4-51.4
		c-30.2,0-55.1,22.4-59.4,51.4H7.3c-4,0-7.3-3.3-7.3-7.3l0-22.2C0,272.2,3.3,268.9,7.3,268.9z M80.1,150.1h91c4,0,7.3-3.3,7.3-7.3
		V92.3c0-4-3.3-7.3-7.3-7.3h-55.5c-2.4,0-4.6,1.2-6,3.1l-35.6,50.5C70.7,143.5,74.2,150.1,80.1,150.1z"/>
</g>
</svg>
