<?xml version="1.0" encoding="utf-8"?>
<!-- Generator: Adobe Illustrator 21.1.0, SVG Export Plug-In . SVG Version: 6.00 Build 0)  -->
<svg version="1.1" id="Layer_1" xmlns="http://www.w3.org/2000/svg" xmlns:xlink="http://www.w3.org/1999/xlink" x="0px" y="0px"
	 viewBox="0 0 106.4 92.9" style="enable-background:new 0 0 106.4 92.9;" xml:space="preserve">
<style type="text/css">
	.st0{fill:#FAFBFC;}
</style>
<title>facebook</title>
<path class="st0" d="M91.9,80c0.4-1.1,1.6-1.7,2.7-1.3s1.7,1.6,1.3,2.7c-1.4,4.3-5.2,8.4-10.1,8.4H41.5c-1.2,0-2.1-0.9-2.1-2.1
	c0-1.2,0.9-2.1,2.1-2.1h44.3C88.8,85.5,91,82.5,91.9,80L91.9,80z M96,68.2c0.1-1.1,1.2-2,2.3-1.8c1.1,0.1,2,1.2,1.8,2.3
	c0,0.1,0,0.2,0,0.3c-0.7,4-3.5,7-7.7,7h-3.9c-1.2,0-2.1-0.9-2.1-2.1c0-1.2,0.9-2.1,2.1-2.1h3.9C94.5,71.8,95.6,70.1,96,68.2z
	 M42.5,44.5c-0.8,0.9-2.1,1-2.9,0.2c-0.9-0.8-1-2.1-0.2-2.9c6-6.9,8.4-14.7,12.1-22.8V5.1c0-0.5,0.2-1,0.5-1.3
	c3.3-4.4,9.7-4.7,14.3-2.2c0.1,0,0.8,0.8,0.8,0.8c3.6,6.3,5.4,11.1,5.9,16.3c0.4,4.6-0.3,9.4-1.7,15.8h27.3c5.1,0,7.8,4.6,7.8,9.2
	s-2.7,9.2-7.9,9.2h-3.9c-1.2,0-2.1-0.9-2.1-2.1s0.9-2.1,2.1-2.1h3.9c2.7,0,3.8-2.7,3.8-5s-1.1-5-3.7-5H68.7c-1.2,0-2.1-1-2.1-2.1
	c0-0.1,0-0.3,0.1-0.4c1.7-7.3,2.6-12.4,2.2-17c-0.4-4.4-1.9-8.6-5-14.1c-2.5-1.2-6-1.2-8.1,0.9v13.5c0,0-0.2,0.8-0.2,0.9
	C51.5,29,49.2,37.1,42.5,44.5L42.5,44.5z M98.6,56.6c0.2-1.1,1.3-1.9,2.4-1.7c1.1,0.2,1.8,1.2,1.7,2.3c-0.6,4.1-3.4,7.4-7.8,7.4H91
	c-1.2,0-2.1-0.9-2.1-2.1s0.9-2.1,2.1-2.1h3.9C97.1,60.5,98.2,58.7,98.6,56.6z M32.2,45.8H4.3l2.6,43h25.4V45.8z M2.1,41.6h32.2
	c1.2,0,2.1,0.9,2.1,2.1l0,0v47.1c0,1.2-0.9,2.1-2.1,2.1H4.9c-1.1,0-2-0.9-2.1-2L0,43.9c-0.1-1.1,0.7-2.2,1.8-2.3
	C1.9,41.6,2,41.6,2.1,41.6L2.1,41.6z M8.9,53c-1.2,0-2.1-0.9-2.1-2.1s0.9-2.1,2.1-2.1h18.2c1.2,0,2.1,0.9,2.1,2.1l0,0v30.8
	c0,1.2-0.9,2.1-2.1,2.1S25,82.8,25,81.7c0-1.1-0.9-2-2-2s-2,0.9-2,2s0.9,2,2,2c1.2,0,2.1,0.9,2.1,2.1c0,1.2-0.9,2.1-2.1,2.1
	c-3.4-0.1-6.1-2.9-6-6.3s2.9-6.1,6.3-6c0.6,0,1.2,0.1,1.8,0.3V53H8.9z"/>
</svg>
