<?xml version="1.0" encoding="utf-8"?>
<!-- Generator: Adobe Illustrator 21.1.0, SVG Export Plug-In . SVG Version: 6.00 Build 0)  -->
<svg version="1.1" xmlns="http://www.w3.org/2000/svg" xmlns:xlink="http://www.w3.org/1999/xlink" x="0px" y="0px"
	 viewBox="0 0 168 168" style="enable-background:new 0 0 168 168;" xml:space="preserve">
<style type="text/css">
	.st0{fill:#FFFFFF;}
</style>
<g id="background">
</g>
<g id="photo_x5F_icon">
	<g>
		<path class="st0" d="M83.6,123c21.3,0,38.6-17.3,38.6-38.6c0-21.3-17.3-38.6-38.6-38.6C62.3,45.7,45,63,45,84.3
			C45,105.6,62.3,123,83.6,123z M83.6,50.5c18.7,0,33.9,15.2,33.9,33.9c0,18.7-15.2,33.9-33.9,33.9c-18.7,0-33.9-15.2-33.9-33.9
			C49.7,65.6,64.9,50.5,83.6,50.5z"/>
		<path class="st0" d="M143.9,0H24.1C10.8,0,0,10.8,0,24.1v34.2h44.7h5h0.2c7.8-10.1,20-16.6,33.7-16.6c13.7,0,25.9,6.5,33.7,16.6
			h0.2h5H168V24.1C168,10.8,157.2,0,143.9,0z M154.3,34.6c0,6.6-5.4,12-12,12h-9.1c-6.6,0-12-5.4-12-12V26c0-6.6,5.4-12,12-12h9.1
			c6.6,0,12,5.4,12,12V34.6z"/>
		<path class="st0" d="M60.3,100.9c6,8.6,15.6,12.9,24.6,12.1c3.7-0.3,3.7-3.3,0.3-4.1c-6.8-1.6-13.4-6-18.2-12.7
			c-4.5-6.4-6.5-13.7-6-20.4c0.3-3.9-2.4-5.2-4-1.7C53.4,82.2,54.4,92.5,60.3,100.9z"/>
		<path class="st0" d="M120.3,62.3h-0.2c3.9,6.4,6.2,14,6.2,22c0,23.5-19.1,42.6-42.6,42.6C60.1,127,41,107.8,41,84.3
			c0-8.1,2.3-15.6,6.2-22H47h-4.7H0v81.6C0,157.2,10.8,168,24.1,168h119.8c13.3,0,24.1-10.8,24.1-24.1V62.3h-43H120.3z"/>
	</g>
</g>
</svg>
