<?xml version="1.0" encoding="utf-8"?>
<!-- Generator: Adobe Illustrator 21.1.0, SVG Export Plug-In . SVG Version: 6.00 Build 0)  -->
<svg version="1.1" id="Layer_1" xmlns="http://www.w3.org/2000/svg" xmlns:xlink="http://www.w3.org/1999/xlink" x="0px" y="0px"
	 viewBox="0 0 107.2 88.9" style="enable-background:new 0 0 107.2 88.9;" xml:space="preserve">
<style type="text/css">
	.st0{fill:#FDFEFF;}
</style>
<title>twitter</title>
<path class="st0" d="M38.5,70.3c-8.1,5.4-18.5,8.3-28.1,9.2C40.1,93,75.1,79.9,88.6,50.2c4.2-9.1,5.9-19.2,5.1-29.1
	c0-0.7-0.1-1.3-0.2-2c-0.2-1,0.4-2,1.3-2.3l9.4-4.3c1-0.5,2.3,0,2.8,1s0,2.3-1,2.8L97.8,20c0,0.3,0,0.5,0.1,0.8
	c2.7,34.8-23.2,65.2-58,67.9C26.2,89.8,12.6,86.4,1,79.1c-1-0.6-1.3-1.9-0.7-2.9c0.4-0.7,1.2-1.1,2-1h0.5c2.7,0.3,5.4,0.3,8.1,0
	c7.3-0.6,14.4-2.6,20.9-5.8c-9.4-1.9-18-6.4-21.8-12.6c-0.5-1-0.1-2.3,0.9-2.8c0.9-0.5,2.1-0.2,2.7,0.6c3.2,5.3,11,9.2,19.5,10.8
	c8.5,1.6,17.7,0.9,24-2.8c1-0.6,2.3-0.3,2.8,0.7c0.6,1,0.3,2.3-0.7,2.8l0,0C53.5,69.5,46,70.7,38.5,70.3z M77.3,49
	c0-11-8.3-20.1-19.2-21.2c0-1.4-0.1-2.7-0.2-4.1c-0.8-9.9,6.6-18.6,16.5-19.4c7-0.6,13.7,3,17.2,9.1c0,0,0.1,0.2,0.2,0.2
	c0.7,0.9,2,1.1,2.9,0.5c0,0,0,0,0,0l9.1-6.7c0.9-0.7,1.1-2,0.5-2.9c-0.7-0.9-2-1.1-2.9-0.5l0,0l-7.3,5.3C86.9-0.6,73.1-3,63.1,4
	C56.6,8.6,53,16.2,53.7,24.1c0.1,1.2,0.2,2.3,0.2,3.5c-7.9-0.4-15.7-2.4-22.8-5.8C23.3,18,16.5,12.6,11,5.9c-0.7-0.9-2.1-1-2.9-0.3
	C7.7,5.9,7.5,6.2,7.4,6.7l0,0C5.2,15.6,7.6,31.3,16,36.5c1.1,0.5,2.3,0,2.8-1.1c0.4-0.9,0.1-1.9-0.6-2.5c-5.8-3.6-7.8-14.7-7.4-21
	c5.3,5.6,11.6,10.2,18.5,13.6c8.3,4,17.3,6.2,26.5,6.3H56c9.5,0,17.1,7.7,17.1,17.1c0,1.2,0.9,2.1,2.1,2.1
	C76.4,51.1,77.3,50.2,77.3,49L77.3,49z M3.8,33.7c2.5,10.1,9.9,18.6,20,21.7c1.1,0.3,2.2-0.4,2.5-1.6c0.2-1-0.3-2.1-1.3-2.4
	c-8.6-2.8-15.1-9.9-17.1-18.7c-0.3-1.1-1.4-1.8-2.5-1.5S3.5,32.6,3.8,33.7L3.8,33.7L3.8,33.7z"/>
</svg>
