<?xml version="1.0" standalone="no"?>
<!DOCTYPE svg PUBLIC "-//W3C//DTD SVG 20010904//EN"
 "http://www.w3.org/TR/2001/REC-SVG-20010904/DTD/svg10.dtd">
<svg version="1.0" xmlns="http://www.w3.org/2000/svg"
 width="260.000000pt" height="260.000000pt" viewBox="0 0 260.000000 260.000000"
 preserveAspectRatio="xMidYMid meet">
<metadata>
Created by potrace 1.11, written by Peter Selinger 2001-2013
</metadata>
<g transform="translate(0.000000,260.000000) scale(0.100000,-0.100000)"
fill="#000000" stroke="none">
<path d="M0 1300 l0 -1300 1300 0 1300 0 0 1300 0 1300 -1300 0 -1300 0 0
-1300z m835 196 c30 -180 30 -175 5 -173 -23 2 -25 5 -41 120 -7 48 -15 85
-18 81 -3 -3 -28 -49 -56 -101 -28 -53 -55 -98 -60 -100 -6 -1 -32 43 -60 98
-27 55 -53 102 -56 105 -4 2 -12 -33 -19 -79 -17 -120 -18 -124 -43 -122 -26
2 -26 -6 9 180 26 137 33 160 41 140 2 -5 32 -63 66 -127 l63 -117 69 130 c38
72 71 127 72 122 2 -4 14 -75 28 -157z m315 -6 c44 -87 76 -161 72 -163 -21
-10 -39 2 -60 41 l-23 42 -75 0 -74 0 -22 -44 c-16 -33 -26 -43 -44 -43 -13 0
-24 1 -24 3 0 9 161 324 165 324 3 0 41 -72 85 -160z m365 138 c16 -7 25 -19
25 -35 0 -23 0 -23 -27 -6 -37 24 -129 24 -166 -1 -52 -35 -71 -103 -44 -156
33 -65 138 -91 205 -50 l32 20 0 -29 c0 -24 -6 -30 -39 -39 -111 -34 -224 16
-248 108 -11 42 -2 99 20 134 42 64 162 91 242 54z m535 -13 c76 -72 61 -241
-24 -282 l-36 -17 0 -100 c1 -56 6 -133 13 -173 8 -42 10 -79 5 -88 -10 -17
-44 -20 -53 -5 -3 5 -1 66 6 134 6 69 8 149 5 178 -6 45 -11 56 -36 70 -61 35
-94 133 -70 211 6 23 27 56 46 75 31 31 39 34 75 29 25 -3 52 -16 69 -32z
m-306 15 c67 -25 73 -120 9 -150 -18 -8 -33 -17 -33 -20 0 -3 22 -32 50 -65
27 -33 50 -63 50 -66 0 -4 -11 -6 -25 -6 -18 0 -37 16 -77 68 -54 70 -71 82
-67 52 1 -10 1 -41 0 -68 -1 -43 -4 -51 -21 -52 -19 -2 -20 4 -20 158 l0 159
54 0 c30 0 66 -4 80 -10z m152 -392 c34 0 34 0 34 -46 0 -80 -5 -87 -57 -90
-59 -2 -83 17 -83 69 0 29 6 42 26 58 15 11 31 18 36 15 5 -3 25 -6 44 -6z
m-315 -19 c13 -26 7 -111 -8 -117 -9 -2 -13 11 -13 45 0 56 -11 78 -34 70 -12
-5 -16 -20 -16 -62 0 -42 -3 -55 -15 -55 -12 0 -15 13 -15 55 0 42 -4 57 -16
62 -23 8 -34 -14 -34 -69 0 -36 -4 -48 -15 -48 -12 0 -15 14 -15 70 l0 69 85
0 c74 -1 87 -4 96 -20z m165 -4 c24 -36 14 -49 -42 -51 -27 -1 -51 -2 -53 -3
-8 -2 32 -41 42 -41 6 0 19 7 29 17 22 19 37 9 22 -15 -13 -20 -65 -27 -93
-13 -28 15 -36 63 -16 100 13 27 21 31 55 31 31 0 43 -5 56 -25z m372 6 c3
-10 -2 -12 -22 -7 -33 8 -35 -10 -3 -25 13 -6 28 -19 34 -28 27 -43 -55 -85
-87 -46 -18 21 -4 32 21 17 11 -7 24 -10 29 -7 19 12 9 33 -20 44 -22 7 -30
16 -30 34 0 13 3 27 7 31 12 12 66 2 71 -13z"/>
<path d="M1051 1537 c-6 -15 -18 -41 -26 -57 l-16 -30 55 0 55 0 -20 48 c-27
63 -36 71 -48 39z"/>
<path d="M1923 1588 c-49 -54 -52 -144 -6 -199 67 -79 170 11 148 129 -14 80
-96 120 -142 70z"/>
<path d="M1651 1550 c-1 -50 -1 -50 29 -50 46 0 70 16 70 48 0 38 -17 52 -60
52 l-37 0 -2 -50z"/>
<path d="M1825 1197 c-18 -28 -12 -53 17 -68 16 -9 25 -7 41 10 17 17 19 25
11 48 -13 37 -48 42 -69 10z"/>
<path d="M1673 1213 c-26 -10 -12 -23 23 -23 31 0 35 2 24 15 -13 15 -25 17
-47 8z"/>
</g>
</svg>
