<svg id="Layer_1" data-name="Layer 1" xmlns="http://www.w3.org/2000/svg" viewBox="0 0 355.31 355.31"><defs><style>.cls-1{fill:#32577d;}.cls-1,.cls-2,.cls-3{stroke:#000;stroke-miterlimit:10;stroke-width:0.5px;}.cls-2{fill:#65943f;}.cls-3{fill:#914240;}.cls-4{font-size:26px;fill:#fff;font-family:AcuminProWide-Bold, Acumin Pro Wide;font-weight:700;}.cls-5{letter-spacing:-0.01em;}.cls-6{letter-spacing:0.01em;}.cls-7{letter-spacing:0em;}.cls-8{letter-spacing:0em;}.cls-9{letter-spacing:0.02em;}.cls-10{letter-spacing:-0.04em;}.cls-11{letter-spacing:-0.08em;}</style></defs><title>pie-chart-example</title><path class="cls-1" d="M177.66,177.66,281.93,321.18c-31.71,23-65.09,33.88-104.28,33.88Z"/><path class="cls-2" d="M177.66,177.66V.25A177.41,177.41,0,0,1,355.06,177.66c0,58.79-25.57,109-73.13,143.52Z"/><path class="cls-3" d="M177.66,355.06a177.41,177.41,0,0,1,0-354.81h0Z"/><text class="cls-4" transform="translate(23.18 180.7)"><tspan class="cls-5">P</tspan><tspan x="19.66" y="0">RO</tspan><tspan class="cls-6" x="62.32" y="0">T</tspan><tspan x="80.29" y="0">EIN</tspan></text><text class="cls-4" transform="translate(220.61 178.52)"><tspan class="cls-7">C</tspan><tspan x="21.11" y="0">A</tspan><tspan class="cls-8" x="41.89" y="0">R</tspan><tspan class="cls-9" x="62.3" y="0">B</tspan><tspan x="83.49" y="0">S</tspan></text><text class="cls-4" transform="translate(192.82 316.11)"><tspan class="cls-10">F</tspan><tspan class="cls-11" x="17.19" y="0">A</tspan><tspan x="35.85" y="0">T</tspan></text></svg>